  0
SECTION
  2
HEADER
  9
$ACADVER
  1
AC1009
  9
$INSBASE
 10
0.0
 20
0.0
 30
0.0
  9
$EXTMIN
 10
0.0
 20
0.0
 30
0.0
  9
$EXTMAX
 10
0.0
 20
0.0
 30
0.0
  0
ENDSEC
  0
SECTION
  2
TABLES
  0
TABLE
  2
VPORT
 70
0
  0
ENDTAB
  0
TABLE
  2
LTYPE
 70
1
  0
LTYPE
  2
CONTINUOUS
 70
0
  3
Solid line
 72
65
 73
0
 40
0.0
  0
ENDTAB
  0
TABLE
  2
LAYER
 70
1
  0
LAYER
  2
0
 70
64
 62
7
  6
continuous
  0
ENDTAB
  0
TABLE
  2
STYLE
 70
1
  0
STYLE
  2
STANDARD
 70
0
 40
0
 41
1.0
 50
0.0
 71
0
 42
1
 3
ARIAL.TTF
 4

  0
ENDTAB
  0
TABLE
  2
VIEW
 70
0
  0
ENDTAB
  0
ENDSEC
  0
SECTION
  2
BLOCKS
  0
BLOCK
  8
0
  2
FUSION
 70
0
 10
0.0
 20
0.0
 30
0.0
  3
FUSION
  0
LINE
  8
0
 62
0
 10
7.60539719352
 20
39.5873456237
 30
0.0
 11
-6.01431779866
 21
66.3175413493
 31
0.0
  0
LINE
  8
0
 62
0
 10
-0.505282581476
 20
14.6252400049
 30
0.0
 11
7.60539719352
 21
39.5873456237
 31
0.0
  0
LINE
  8
0
 62
0
 10
-6.01431779866
 20
66.3175413493
 30
0.0
 11
2.89574744322
 21
70.8574463467
 31
0.0
  0
LINE
  8
0
 62
0
 10
-0.505282581476
 20
14.6252400049
 30
0.0
 11
-5.25328890437
 21
16.167960777
 31
0.0
  0
LINE
  8
0
 62
0
 10
2.89574744322
 20
70.8574463467
 30
0.0
 11
11.975557438
 21
53.037315863
 31
0.0
  0
LINE
  8
0
 62
0
 10
11.975557438
 20
53.037315863
 30
0.0
 11
18.1558973255
 21
72.0584461889
 31
0.0
  0
LINE
  8
0
 62
0
 10
17.1159623565
 20
36.4971756799
 30
0.0
 11
9.00528258148
 21
11.5350700611
 31
0.0
  0
LINE
  8
0
 62
0
 10
43.8461580821
 20
50.1168906721
 30
0.0
 11
17.1159623565
 21
36.4971756799
 31
0.0
  0
LINE
  8
0
 62
0
 10
39.3062530847
 20
59.026955914
 30
0.0
 11
43.8461580821
 21
50.1168906721
 31
0.0
  0
LINE
  8
0
 62
0
 10
21.486122601
 20
49.9471459192
 30
0.0
 11
39.3062530847
 21
59.026955914
 31
0.0
  0
LINE
  8
0
 62
0
 10
27.6664624885
 20
68.9682762451
 30
0.0
 11
21.486122601
 21
49.9471459192
 31
0.0
  0
LINE
  8
0
 62
0
 10
18.1558973255
 20
72.0584461889
 30
0.0
 11
27.6664624885
 21
68.9682762451
 31
0.0
  0
LINE
  8
0
 62
0
 10
-5.25328890437
 20
16.167960777
 30
0.0
 11
-8.18771819072
 21
12.1290653604
 31
0.0
  0
LINE
  8
0
 62
0
 10
13.7532889044
 20
9.99234928897
 30
0.0
 11
9.00528258148
 21
11.5350700611
 31
0.0
  0
LINE
  8
0
 62
0
 10
-29.4217535135
 20
27.5564950636
 30
0.0
 11
-8.18771819072
 21
12.1290653604
 31
0.0
  0
LINE
  8
0
 62
0
 10
13.7532889044
 20
5.0
 30
0.0
 11
13.7532889044
 21
9.99234928897
 31
0.0
  0
LINE
  8
0
 62
0
 10
-34.1147874647
 20
57.1871452814
 30
0.0
 11
-29.4217535135
 21
27.5564950636
 31
0.0
  0
LINE
  8
0
 62
0
 10
13.7532889044
 20
5.0
 30
0.0
 11
40.0
 21
5.0
 31
0.0
  0
LINE
  8
0
 62
0
 10
-43.9916708707
 20
55.622800631
 30
0.0
 11
-34.1147874647
 21
57.1871452814
 31
0.0
  0
LINE
  8
0
 62
0
 10
-40.8629815699
 20
35.8690338191
 30
0.0
 11
-43.9916708707
 21
55.622800631
 31
0.0
  0
LINE
  8
0
 62
0
 10
-57.0433214574
 20
47.624738865
 30
0.0
 11
-40.8629815699
 21
35.8690338191
 31
0.0
  0
LINE
  8
0
 62
0
 10
-62.9211739803
 20
39.5345689212
 30
0.0
 11
-57.0433214574
 21
47.624738865
 31
0.0
  0
LINE
  8
0
 62
0
 10
-46.7408340928
 20
27.7788638754
 30
0.0
 11
-62.9211739803
 21
39.5345689212
 31
0.0
  0
LINE
  8
0
 62
0
 10
-66.4946009047
 20
24.6501745746
 30
0.0
 11
-46.7408340928
 21
27.7788638754
 31
0.0
  0
LINE
  8
0
 62
0
 10
-64.9302562543
 20
14.7732911686
 30
0.0
 11
-66.4946009047
 21
24.6501745746
 31
0.0
  0
LINE
  8
0
 62
0
 10
-35.2996060365
 20
19.4663251198
 30
0.0
 11
-64.9302562543
 21
14.7732911686
 31
0.0
  0
LINE
  8
0
 62
0
 10
-14.0655707136
 20
4.03889541663
 30
0.0
 11
-35.2996060365
 21
19.4663251198
 31
0.0
  0
LINE
  8
0
 62
0
 10
-14.0655707136
 20
4.03889541663
 30
0.0
 11
-17.0
 21
-3.5527136788e-15
 31
0.0
  0
LINE
  8
0
 62
0
 10
-17.0
 20
0.0
 30
0.0
 11
-14.0655707136
 21
-4.03889541663
 31
0.0
  0
LINE
  8
0
 62
0
 10
40.0
 20
5.0
 30
0.0
 11
61.2132034356
 21
26.2132034356
 31
0.0
  0
LINE
  8
0
 62
0
 10
9.00528258148
 20
-11.5350700611
 30
0.0
 11
13.7532889044
 21
-9.99234928897
 31
0.0
  0
LINE
  8
0
 62
0
 10
13.7532889044
 20
-9.99234928897
 30
0.0
 11
13.7532889044
 21
-5.0
 31
0.0
  0
LINE
  8
0
 62
0
 10
40.0
 20
-5.0
 30
0.0
 11
13.7532889044
 21
-5.0
 31
0.0
  0
LINE
  8
0
 62
0
 10
61.2132034356
 20
-26.2132034356
 30
0.0
 11
40.0
 21
-5.0
 31
0.0
  0
LINE
  8
0
 62
0
 10
68.2842712475
 20
-19.1421356237
 30
0.0
 11
61.2132034356
 21
-26.2132034356
 31
0.0
  0
LINE
  8
0
 62
0
 10
54.1421356237
 20
-5.0
 30
0.0
 11
68.2842712475
 21
-19.1421356237
 31
0.0
  0
LINE
  8
0
 62
0
 10
74.1421356237
 20
-5.0
 30
0.0
 11
54.1421356237
 21
-5.0
 31
0.0
  0
LINE
  8
0
 62
0
 10
74.1421356237
 20
5.0
 30
0.0
 11
74.1421356237
 21
-5.0
 31
0.0
  0
LINE
  8
0
 62
0
 10
54.1421356237
 20
5.0
 30
0.0
 11
74.1421356237
 21
5.0
 31
0.0
  0
LINE
  8
0
 62
0
 10
68.2842712475
 20
19.1421356237
 30
0.0
 11
54.1421356237
 21
5.0
 31
0.0
  0
LINE
  8
0
 62
0
 10
61.2132034356
 20
26.2132034356
 30
0.0
 11
68.2842712475
 21
19.1421356237
 31
0.0
  0
LINE
  8
0
 62
0
 10
-35.2996060365
 20
-19.4663251198
 30
0.0
 11
-14.0655707136
 21
-4.03889541663
 31
0.0
  0
LINE
  8
0
 62
0
 10
9.00528258148
 20
-11.5350700611
 30
0.0
 11
17.1159623565
 21
-36.4971756799
 31
0.0
  0
LINE
  8
0
 62
0
 10
-64.9302562543
 20
-14.7732911686
 30
0.0
 11
-35.2996060365
 21
-19.4663251198
 31
0.0
  0
LINE
  8
0
 62
0
 10
-66.4946009047
 20
-24.6501745746
 30
0.0
 11
-64.9302562543
 21
-14.7732911686
 31
0.0
  0
LINE
  8
0
 62
0
 10
-46.7408340928
 20
-27.7788638754
 30
0.0
 11
-66.4946009047
 21
-24.6501745746
 31
0.0
  0
LINE
  8
0
 62
0
 10
-62.9211739803
 20
-39.5345689212
 30
0.0
 11
-46.7408340928
 21
-27.7788638754
 31
0.0
  0
LINE
  8
0
 62
0
 10
-57.0433214574
 20
-47.624738865
 30
0.0
 11
-62.9211739803
 21
-39.5345689212
 31
0.0
  0
LINE
  8
0
 62
0
 10
-40.8629815699
 20
-35.8690338191
 30
0.0
 11
-57.0433214574
 21
-47.624738865
 31
0.0
  0
LINE
  8
0
 62
0
 10
-43.9916708707
 20
-55.622800631
 30
0.0
 11
-40.8629815699
 21
-35.8690338191
 31
0.0
  0
LINE
  8
0
 62
0
 10
-34.1147874647
 20
-57.1871452814
 30
0.0
 11
-43.9916708707
 21
-55.622800631
 31
0.0
  0
LINE
  8
0
 62
0
 10
-29.4217535135
 20
-27.5564950636
 30
0.0
 11
-34.1147874647
 21
-57.1871452814
 31
0.0
  0
LINE
  8
0
 62
0
 10
-8.18771819072
 20
-12.1290653604
 30
0.0
 11
-29.4217535135
 21
-27.5564950636
 31
0.0
  0
LINE
  8
0
 62
0
 10
-8.18771819072
 20
-12.1290653604
 30
0.0
 11
-5.25328890437
 21
-16.167960777
 31
0.0
  0
LINE
  8
0
 62
0
 10
-5.25328890437
 20
-16.167960777
 30
0.0
 11
-0.505282581476
 21
-14.6252400049
 31
0.0
  0
LINE
  8
0
 62
0
 10
7.60539719352
 20
-39.5873456237
 30
0.0
 11
-0.505282581476
 21
-14.6252400049
 31
0.0
  0
LINE
  8
0
 62
0
 10
-6.01431779866
 20
-66.3175413493
 30
0.0
 11
7.60539719352
 21
-39.5873456237
 31
0.0
  0
LINE
  8
0
 62
0
 10
2.89574744322
 20
-70.8574463467
 30
0.0
 11
-6.01431779866
 21
-66.3175413493
 31
0.0
  0
LINE
  8
0
 62
0
 10
11.975557438
 20
-53.037315863
 30
0.0
 11
2.89574744322
 21
-70.8574463467
 31
0.0
  0
LINE
  8
0
 62
0
 10
18.1558973255
 20
-72.0584461889
 30
0.0
 11
11.975557438
 21
-53.037315863
 31
0.0
  0
LINE
  8
0
 62
0
 10
27.6664624885
 20
-68.9682762451
 30
0.0
 11
18.1558973255
 21
-72.0584461889
 31
0.0
  0
LINE
  8
0
 62
0
 10
21.486122601
 20
-49.9471459192
 30
0.0
 11
27.6664624885
 21
-68.9682762451
 31
0.0
  0
LINE
  8
0
 62
0
 10
39.3062530847
 20
-59.026955914
 30
0.0
 11
21.486122601
 21
-49.9471459192
 31
0.0
  0
LINE
  8
0
 62
0
 10
43.8461580821
 20
-50.1168906721
 30
0.0
 11
39.3062530847
 21
-59.026955914
 31
0.0
  0
LINE
  8
0
 62
0
 10
17.1159623565
 20
-36.4971756799
 30
0.0
 11
43.8461580821
 21
-50.1168906721
 31
0.0
  0
ENDBLK
  0
BLOCK
  8
0
  2
EXTRUDE007
 70
0
 10
0.0
 20
0.0
 30
0.0
  3
EXTRUDE007
  0
LINE
  8
0
 62
0
 10
74.1421356237
 20
5.0
 30
0.0
 11
84.1421356237
 21
5.0
 31
0.0
  0
LINE
  8
0
 62
0
 10
74.1421356237
 20
-5.0
 30
0.0
 11
84.1421356237
 21
-5.0
 31
0.0
  0
LINE
  8
0
 62
0
 10
74.1421356237
 20
5.0
 30
0.0
 11
74.1421356237
 21
-5.0
 31
0.0
  0
LINE
  8
0
 62
0
 10
84.1421356237
 20
5.0
 30
0.0
 11
84.1421356237
 21
-5.0
 31
0.0
  0
ENDBLK
  0
ENDSEC
  0
SECTION
  2
ENTITIES
  0
INSERT
  2
FUSION
  8
0
 62
0
 10
0.0
 20
0.0
 30
0.0
  0
INSERT
  2
EXTRUDE007
  8
0
 62
0
 10
0.0
 20
0.0
 30
0.0
  0
ENDSEC
  0
EOF
