G04 #@! TF.FileFunction,Legend,Top*
%FSLAX46Y46*%
G04 Gerber Fmt 4.6, Leading zero omitted, Abs format (unit mm)*
G04 Created by KiCad (PCBNEW 4.0.7) date 11/25/17 11:04:04*
%MOMM*%
%LPD*%
G01*
G04 APERTURE LIST*
%ADD10C,0.100000*%
%ADD11C,0.300000*%
%ADD12C,0.152400*%
%ADD13C,0.120000*%
%ADD14C,0.150000*%
G04 APERTURE END LIST*
D10*
D11*
X226981000Y-107382571D02*
X227481000Y-108882571D01*
X227981000Y-107382571D01*
X229338143Y-108739714D02*
X229266714Y-108811143D01*
X229052428Y-108882571D01*
X228909571Y-108882571D01*
X228695286Y-108811143D01*
X228552428Y-108668286D01*
X228481000Y-108525429D01*
X228409571Y-108239714D01*
X228409571Y-108025429D01*
X228481000Y-107739714D01*
X228552428Y-107596857D01*
X228695286Y-107454000D01*
X228909571Y-107382571D01*
X229052428Y-107382571D01*
X229266714Y-107454000D01*
X229338143Y-107525429D01*
X230838143Y-108739714D02*
X230766714Y-108811143D01*
X230552428Y-108882571D01*
X230409571Y-108882571D01*
X230195286Y-108811143D01*
X230052428Y-108668286D01*
X229981000Y-108525429D01*
X229909571Y-108239714D01*
X229909571Y-108025429D01*
X229981000Y-107739714D01*
X230052428Y-107596857D01*
X230195286Y-107454000D01*
X230409571Y-107382571D01*
X230552428Y-107382571D01*
X230766714Y-107454000D01*
X230838143Y-107525429D01*
X227711143Y-100977000D02*
X227568286Y-100905571D01*
X227354000Y-100905571D01*
X227139715Y-100977000D01*
X226996857Y-101119857D01*
X226925429Y-101262714D01*
X226854000Y-101548429D01*
X226854000Y-101762714D01*
X226925429Y-102048429D01*
X226996857Y-102191286D01*
X227139715Y-102334143D01*
X227354000Y-102405571D01*
X227496857Y-102405571D01*
X227711143Y-102334143D01*
X227782572Y-102262714D01*
X227782572Y-101762714D01*
X227496857Y-101762714D01*
X228425429Y-102405571D02*
X228425429Y-100905571D01*
X229282572Y-102405571D01*
X229282572Y-100905571D01*
X229996858Y-102405571D02*
X229996858Y-100905571D01*
X230354001Y-100905571D01*
X230568286Y-100977000D01*
X230711144Y-101119857D01*
X230782572Y-101262714D01*
X230854001Y-101548429D01*
X230854001Y-101762714D01*
X230782572Y-102048429D01*
X230711144Y-102191286D01*
X230568286Y-102334143D01*
X230354001Y-102405571D01*
X229996858Y-102405571D01*
D12*
X145097350Y-117180385D02*
X145357969Y-117896431D01*
X145357969Y-117896431D02*
X160394930Y-112423425D01*
X160394930Y-112423425D02*
X160134311Y-111707379D01*
D13*
X210186396Y-128773351D02*
X205236649Y-123823604D01*
X213863351Y-125096396D02*
X208913604Y-120146649D01*
X208913604Y-120146649D02*
X208206497Y-120853755D01*
X171648000Y-107502000D02*
X164648000Y-107502000D01*
X171648000Y-102302000D02*
X164648000Y-102302000D01*
X164648000Y-102302000D02*
X164648000Y-103302000D01*
X196540000Y-107502000D02*
X189540000Y-107502000D01*
X196540000Y-102302000D02*
X189540000Y-102302000D01*
X189540000Y-102302000D02*
X189540000Y-103302000D01*
X214178000Y-102048000D02*
X221178000Y-102048000D01*
X214178000Y-107248000D02*
X221178000Y-107248000D01*
X221178000Y-107248000D02*
X221178000Y-106248000D01*
X205744649Y-86234396D02*
X210694396Y-81284649D01*
X209421604Y-89911351D02*
X214371351Y-84961604D01*
X214371351Y-84961604D02*
X213664245Y-84254497D01*
X151385694Y-87869254D02*
X153548813Y-81211858D01*
X156331187Y-89476142D02*
X158494306Y-82818746D01*
X158494306Y-82818746D02*
X157543250Y-82509729D01*
X158497694Y-65009254D02*
X160660813Y-58351858D01*
X163443187Y-66616142D02*
X165606306Y-59958746D01*
X165606306Y-59958746D02*
X164655250Y-59649729D01*
X181629102Y-51850350D02*
X187866148Y-48672416D01*
X183989852Y-56483584D02*
X190226898Y-53305650D01*
X190226898Y-53305650D02*
X189772908Y-52414644D01*
X166625694Y-41387254D02*
X168788813Y-34729858D01*
X171571187Y-42994142D02*
X173734306Y-36336746D01*
X173734306Y-36336746D02*
X172783250Y-36027729D01*
X148116350Y-44938898D02*
X144938416Y-38701852D01*
X152749584Y-42578148D02*
X149571650Y-36341102D01*
X149571650Y-36341102D02*
X148680644Y-36795092D01*
X133383318Y-97124693D02*
X127720199Y-93010196D01*
X136439801Y-92917804D02*
X130776682Y-88803307D01*
X130776682Y-88803307D02*
X130188897Y-89612324D01*
X114587318Y-83154693D02*
X108924199Y-79040196D01*
X117643801Y-78947804D02*
X111980682Y-74833307D01*
X111980682Y-74833307D02*
X111392897Y-75642324D01*
X108215531Y-56441639D02*
X107120490Y-49527820D01*
X113351510Y-55628180D02*
X112256469Y-48714361D01*
X112256469Y-48714361D02*
X111268781Y-48870796D01*
X93251318Y-68168693D02*
X87588199Y-64054196D01*
X96307801Y-63961804D02*
X90644682Y-59847307D01*
X90644682Y-59847307D02*
X90056897Y-60656324D01*
X90731639Y-86602469D02*
X83817820Y-87697510D01*
X89918180Y-81466490D02*
X83004361Y-82561531D01*
X83004361Y-82561531D02*
X83160796Y-83549219D01*
X138217801Y-115108196D02*
X132554682Y-119222693D01*
X135161318Y-110901307D02*
X129498199Y-115015804D01*
X129498199Y-115015804D02*
X130085984Y-115824821D01*
X117389801Y-130856196D02*
X111726682Y-134970693D01*
X114333318Y-126649307D02*
X108670199Y-130763804D01*
X108670199Y-130763804D02*
X109257984Y-131572821D01*
X90680180Y-128083510D02*
X83766361Y-126988469D01*
X91493639Y-122947531D02*
X84579820Y-121852490D01*
X84579820Y-121852490D02*
X84423386Y-122840178D01*
X96815801Y-145842196D02*
X91152682Y-149956693D01*
X93759318Y-141635307D02*
X88096199Y-145749804D01*
X88096199Y-145749804D02*
X88683984Y-146558821D01*
X113351510Y-153667820D02*
X112256469Y-160581639D01*
X108215531Y-152854361D02*
X107120490Y-159768180D01*
X107120490Y-159768180D02*
X108108178Y-159924614D01*
X156839187Y-120327858D02*
X159002306Y-126985254D01*
X151893694Y-121934746D02*
X154056813Y-128592142D01*
X154056813Y-128592142D02*
X155007869Y-128283125D01*
X163443187Y-141663858D02*
X165606306Y-148321254D01*
X158497694Y-143270746D02*
X160660813Y-149928142D01*
X160660813Y-149928142D02*
X161611869Y-149619125D01*
X153257584Y-167225852D02*
X150079650Y-173462898D01*
X148624350Y-164865102D02*
X145446416Y-171102148D01*
X145446416Y-171102148D02*
X146337423Y-171556138D01*
X171063187Y-167063858D02*
X173226306Y-173721254D01*
X166117694Y-168670746D02*
X168280813Y-175328142D01*
X168280813Y-175328142D02*
X169231869Y-175019125D01*
X183989852Y-153574416D02*
X190226898Y-156752350D01*
X181629102Y-158207650D02*
X187866148Y-161385584D01*
X187866148Y-161385584D02*
X188320138Y-160494577D01*
X154170000Y-162599000D02*
X153170000Y-162599000D01*
X153170000Y-164299000D02*
X154170000Y-164299000D01*
X168441000Y-162949000D02*
X168441000Y-163949000D01*
X170141000Y-163949000D02*
X170141000Y-162949000D01*
X160440000Y-136787000D02*
X160440000Y-137787000D01*
X162140000Y-137787000D02*
X162140000Y-136787000D01*
X152695136Y-120088907D02*
X153646193Y-119779890D01*
X153120864Y-118163093D02*
X152169807Y-118472110D01*
X113704000Y-148979000D02*
X113704000Y-149979000D01*
X115404000Y-149979000D02*
X115404000Y-148979000D01*
X100615891Y-142020443D02*
X99806874Y-142608228D01*
X100806109Y-143983557D02*
X101615126Y-143395772D01*
X93210000Y-128690000D02*
X92210000Y-128690000D01*
X92210000Y-130390000D02*
X93210000Y-130390000D01*
X120261000Y-126277000D02*
X119261000Y-126277000D01*
X119261000Y-127977000D02*
X120261000Y-127977000D01*
X179078000Y-153504000D02*
X180078000Y-153504000D01*
X180078000Y-151804000D02*
X179078000Y-151804000D01*
X139358000Y-111768000D02*
X139358000Y-112768000D01*
X141058000Y-112768000D02*
X141058000Y-111768000D01*
X136749122Y-99957013D02*
X136249122Y-99090987D01*
X134776878Y-99940987D02*
X135276878Y-100807013D01*
X118991000Y-83097000D02*
X117991000Y-83097000D01*
X117991000Y-84797000D02*
X118991000Y-84797000D01*
X96385000Y-68492000D02*
X95385000Y-68492000D01*
X95385000Y-70192000D02*
X96385000Y-70192000D01*
X96004000Y-84621000D02*
X95004000Y-84621000D01*
X95004000Y-86321000D02*
X96004000Y-86321000D01*
X109847000Y-58078000D02*
X108847000Y-58078000D01*
X108847000Y-59778000D02*
X109847000Y-59778000D01*
X151091000Y-48252000D02*
X151091000Y-47252000D01*
X149391000Y-47252000D02*
X149391000Y-48252000D01*
X166077000Y-44188000D02*
X166077000Y-43188000D01*
X164377000Y-43188000D02*
X164377000Y-44188000D01*
X177935000Y-54444000D02*
X178935000Y-54444000D01*
X178935000Y-52744000D02*
X177935000Y-52744000D01*
X176649000Y-105830000D02*
X175649000Y-105830000D01*
X175649000Y-107530000D02*
X176649000Y-107530000D01*
X199224000Y-110355000D02*
X199224000Y-109355000D01*
X197524000Y-109355000D02*
X197524000Y-110355000D01*
X202319000Y-90258000D02*
X203319000Y-90258000D01*
X203319000Y-88558000D02*
X202319000Y-88558000D01*
X205398000Y-119007000D02*
X205398000Y-120007000D01*
X207098000Y-120007000D02*
X207098000Y-119007000D01*
X156456000Y-79287000D02*
X155456000Y-79287000D01*
X155456000Y-80987000D02*
X156456000Y-80987000D01*
X159727000Y-70096000D02*
X159727000Y-69096000D01*
X158027000Y-69096000D02*
X158027000Y-70096000D01*
X209177000Y-103466000D02*
X210177000Y-103466000D01*
X210177000Y-101766000D02*
X209177000Y-101766000D01*
X136280000Y-105756000D02*
X136280000Y-104556000D01*
X138040000Y-104556000D02*
X138040000Y-105756000D01*
X162678000Y-106080000D02*
X162678000Y-107280000D01*
X160918000Y-107280000D02*
X160918000Y-106080000D01*
X127574990Y-85919220D02*
X127504280Y-85848510D01*
X125524381Y-90091150D02*
X128635650Y-86979881D01*
X126443619Y-84787850D02*
X123332350Y-87899119D01*
X124463720Y-89030490D02*
X124393010Y-88959780D01*
X184381500Y-106349000D02*
X184381500Y-106249000D01*
X179981500Y-107849000D02*
X184381500Y-107849000D01*
X184381500Y-104749000D02*
X179981500Y-104749000D01*
X179981500Y-106349000D02*
X179981500Y-106249000D01*
X158549558Y-102998316D02*
X161049140Y-102088543D01*
X156791574Y-98168296D02*
X158549558Y-102998316D01*
X159291157Y-97258523D02*
X161049140Y-102088543D01*
X156791574Y-98168296D02*
X159291157Y-97258523D01*
X156357209Y-96974887D02*
X155902322Y-95725096D01*
X155902322Y-95725096D02*
X157152113Y-95270209D01*
D14*
X151749702Y-104893236D02*
X150988998Y-105170109D01*
X150915790Y-105247430D01*
X150887330Y-105308464D01*
X150875156Y-105414245D01*
X150940303Y-105593235D01*
X151017623Y-105666442D01*
X151078657Y-105694903D01*
X151184438Y-105707077D01*
X151945142Y-105430203D01*
X151347469Y-106711916D02*
X151152029Y-106174949D01*
X151249749Y-106443432D02*
X152189442Y-106101412D01*
X152022627Y-106060777D01*
X151900559Y-106003856D01*
X151823238Y-105930648D01*
X222083381Y-105044833D02*
X222797667Y-105044833D01*
X222940524Y-105092453D01*
X223035762Y-105187691D01*
X223083381Y-105330548D01*
X223083381Y-105425786D01*
X223083381Y-104044833D02*
X223083381Y-104616262D01*
X223083381Y-104330548D02*
X222083381Y-104330548D01*
X222226238Y-104425786D01*
X222321476Y-104521024D01*
X222369095Y-104616262D01*
X205963959Y-126463470D02*
X205627241Y-126126752D01*
X206334348Y-125419645D01*
X206570050Y-126328782D02*
X206805753Y-126564485D01*
X206536379Y-127035890D02*
X206199661Y-126699172D01*
X206906767Y-125992065D01*
X207243485Y-126328783D01*
X206839424Y-127338935D02*
X207546531Y-126631829D01*
X207714889Y-126800187D01*
X207782233Y-126934875D01*
X207782233Y-127069562D01*
X207748562Y-127170577D01*
X207647547Y-127338935D01*
X207546531Y-127439951D01*
X207378172Y-127540966D01*
X207277157Y-127574638D01*
X207142470Y-127574638D01*
X207007783Y-127507294D01*
X206839424Y-127338935D01*
X208186294Y-127271592D02*
X208624027Y-127709325D01*
X208118951Y-127742996D01*
X208219967Y-127844012D01*
X208253638Y-127945027D01*
X208253638Y-128012370D01*
X208219966Y-128113386D01*
X208051607Y-128281745D01*
X207950592Y-128315417D01*
X207883249Y-128315417D01*
X207782233Y-128281745D01*
X207580202Y-128079714D01*
X207546531Y-127978699D01*
X207546531Y-127911355D01*
X167028953Y-108854381D02*
X166552762Y-108854381D01*
X166552762Y-107854381D01*
X167362286Y-108330571D02*
X167695620Y-108330571D01*
X167838477Y-108854381D02*
X167362286Y-108854381D01*
X167362286Y-107854381D01*
X167838477Y-107854381D01*
X168267048Y-108854381D02*
X168267048Y-107854381D01*
X168505143Y-107854381D01*
X168648001Y-107902000D01*
X168743239Y-107997238D01*
X168790858Y-108092476D01*
X168838477Y-108282952D01*
X168838477Y-108425810D01*
X168790858Y-108616286D01*
X168743239Y-108711524D01*
X168648001Y-108806762D01*
X168505143Y-108854381D01*
X168267048Y-108854381D01*
X169790858Y-108854381D02*
X169219429Y-108854381D01*
X169505143Y-108854381D02*
X169505143Y-107854381D01*
X169409905Y-107997238D01*
X169314667Y-108092476D01*
X169219429Y-108140095D01*
X185888453Y-102687381D02*
X185412262Y-102687381D01*
X185412262Y-101687381D01*
X186221786Y-102163571D02*
X186555120Y-102163571D01*
X186697977Y-102687381D02*
X186221786Y-102687381D01*
X186221786Y-101687381D01*
X186697977Y-101687381D01*
X187126548Y-102687381D02*
X187126548Y-101687381D01*
X187364643Y-101687381D01*
X187507501Y-101735000D01*
X187602739Y-101830238D01*
X187650358Y-101925476D01*
X187697977Y-102115952D01*
X187697977Y-102258810D01*
X187650358Y-102449286D01*
X187602739Y-102544524D01*
X187507501Y-102639762D01*
X187364643Y-102687381D01*
X187126548Y-102687381D01*
X188078929Y-101782619D02*
X188126548Y-101735000D01*
X188221786Y-101687381D01*
X188459882Y-101687381D01*
X188555120Y-101735000D01*
X188602739Y-101782619D01*
X188650358Y-101877857D01*
X188650358Y-101973095D01*
X188602739Y-102115952D01*
X188031310Y-102687381D01*
X188650358Y-102687381D01*
X210843953Y-105544881D02*
X210367762Y-105544881D01*
X210367762Y-104544881D01*
X211177286Y-105021071D02*
X211510620Y-105021071D01*
X211653477Y-105544881D02*
X211177286Y-105544881D01*
X211177286Y-104544881D01*
X211653477Y-104544881D01*
X212082048Y-105544881D02*
X212082048Y-104544881D01*
X212320143Y-104544881D01*
X212463001Y-104592500D01*
X212558239Y-104687738D01*
X212605858Y-104782976D01*
X212653477Y-104973452D01*
X212653477Y-105116310D01*
X212605858Y-105306786D01*
X212558239Y-105402024D01*
X212463001Y-105497262D01*
X212320143Y-105544881D01*
X212082048Y-105544881D01*
X213510620Y-104878214D02*
X213510620Y-105544881D01*
X213272524Y-104497262D02*
X213034429Y-105211548D01*
X213653477Y-105211548D01*
X205967096Y-85185167D02*
X205630378Y-85521885D01*
X204923271Y-84814778D01*
X205832408Y-84579076D02*
X206068111Y-84343373D01*
X206539516Y-84612747D02*
X206202798Y-84949465D01*
X205495691Y-84242359D01*
X205832409Y-83905641D01*
X206842561Y-84309702D02*
X206135455Y-83602595D01*
X206303813Y-83434237D01*
X206438501Y-83366893D01*
X206573188Y-83366893D01*
X206674203Y-83400564D01*
X206842561Y-83501579D01*
X206943577Y-83602595D01*
X207044592Y-83770954D01*
X207078264Y-83871969D01*
X207078264Y-84006656D01*
X207010920Y-84141343D01*
X206842561Y-84309702D01*
X207179279Y-82558771D02*
X206842561Y-82895488D01*
X207145607Y-83265877D01*
X207145607Y-83198534D01*
X207179278Y-83097519D01*
X207347638Y-82929159D01*
X207448653Y-82895488D01*
X207515996Y-82895488D01*
X207617012Y-82929160D01*
X207785371Y-83097519D01*
X207819043Y-83198534D01*
X207819043Y-83265877D01*
X207785371Y-83366893D01*
X207617012Y-83535252D01*
X207515996Y-83568924D01*
X207448653Y-83568924D01*
X151695737Y-85466511D02*
X151548586Y-85919396D01*
X150597530Y-85610379D01*
X151300570Y-84987627D02*
X151403576Y-84670607D01*
X151945894Y-84696608D02*
X151798743Y-85149493D01*
X150847686Y-84840476D01*
X150994838Y-84387591D01*
X152078330Y-84289013D02*
X151127273Y-83979996D01*
X151200849Y-83753554D01*
X151290283Y-83632403D01*
X151410289Y-83571257D01*
X151515581Y-83555399D01*
X151711450Y-83568970D01*
X151847316Y-83613116D01*
X152013754Y-83717265D01*
X152089616Y-83791983D01*
X152150762Y-83911990D01*
X152151905Y-84062571D01*
X152078330Y-84289013D01*
X151568726Y-82621343D02*
X151509866Y-82802498D01*
X151525724Y-82907790D01*
X151556297Y-82967793D01*
X151662732Y-83102515D01*
X151829170Y-83206664D01*
X152191478Y-83324385D01*
X152296770Y-83308526D01*
X152356773Y-83277953D01*
X152431492Y-83202091D01*
X152490353Y-83020937D01*
X152474494Y-82915645D01*
X152443921Y-82855642D01*
X152368059Y-82780923D01*
X152141618Y-82707348D01*
X152036325Y-82723206D01*
X151976322Y-82753779D01*
X151901603Y-82829641D01*
X151842742Y-83010795D01*
X151858601Y-83116087D01*
X151889174Y-83176090D01*
X151965036Y-83250809D01*
X158807737Y-62606511D02*
X158660586Y-63059396D01*
X157709530Y-62750379D01*
X158412570Y-62127627D02*
X158515576Y-61810607D01*
X159057894Y-61836608D02*
X158910743Y-62289493D01*
X157959686Y-61980476D01*
X158106838Y-61527591D01*
X159190330Y-61429013D02*
X158239273Y-61119996D01*
X158312849Y-60893554D01*
X158402283Y-60772403D01*
X158522289Y-60711257D01*
X158627581Y-60695399D01*
X158823450Y-60708970D01*
X158959316Y-60753116D01*
X159125754Y-60857265D01*
X159201616Y-60931983D01*
X159262762Y-61051990D01*
X159263905Y-61202571D01*
X159190330Y-61429013D01*
X158518860Y-60259516D02*
X158724872Y-59625478D01*
X159543492Y-60342091D01*
X183547331Y-50370588D02*
X183123042Y-50586774D01*
X182669052Y-49695768D01*
X183606529Y-49752540D02*
X183903531Y-49601210D01*
X184268623Y-50003072D02*
X183844333Y-50219258D01*
X183390343Y-49328252D01*
X183814632Y-49112065D01*
X184650482Y-49808505D02*
X184196492Y-48917498D01*
X184408636Y-48809405D01*
X184557542Y-48786978D01*
X184685637Y-48828599D01*
X184771303Y-48891838D01*
X184900206Y-49039934D01*
X184965062Y-49167222D01*
X185009107Y-49358556D01*
X185009916Y-49465032D01*
X184968295Y-49593127D01*
X184862626Y-49700412D01*
X184650482Y-49808505D01*
X185409352Y-48780512D02*
X185302876Y-48781320D01*
X185238828Y-48760510D01*
X185153162Y-48697271D01*
X185131544Y-48654842D01*
X185130735Y-48548365D01*
X185151546Y-48484318D01*
X185214785Y-48398652D01*
X185384501Y-48312177D01*
X185490977Y-48311369D01*
X185555025Y-48332179D01*
X185640691Y-48395418D01*
X185662309Y-48437847D01*
X185663118Y-48544323D01*
X185642307Y-48608371D01*
X185579068Y-48694037D01*
X185409352Y-48780512D01*
X185346113Y-48866178D01*
X185325303Y-48930225D01*
X185326111Y-49036702D01*
X185412586Y-49206417D01*
X185498252Y-49269657D01*
X185562299Y-49290467D01*
X185668775Y-49289659D01*
X185838492Y-49203184D01*
X185901731Y-49117518D01*
X185922541Y-49053470D01*
X185921733Y-48946994D01*
X185835258Y-48777279D01*
X185749592Y-48714039D01*
X185685544Y-48693229D01*
X185579068Y-48694037D01*
X166935737Y-38984511D02*
X166788586Y-39437396D01*
X165837530Y-39128379D01*
X166540570Y-38505627D02*
X166643576Y-38188607D01*
X167185894Y-38214608D02*
X167038743Y-38667493D01*
X166087686Y-38358476D01*
X166234838Y-37905591D01*
X167318330Y-37807013D02*
X166367273Y-37497996D01*
X166440849Y-37271554D01*
X166530283Y-37150403D01*
X166650289Y-37089257D01*
X166755581Y-37073399D01*
X166951450Y-37086970D01*
X167087316Y-37131116D01*
X167253754Y-37235265D01*
X167329616Y-37309983D01*
X167390762Y-37429990D01*
X167391905Y-37580571D01*
X167318330Y-37807013D01*
X167642062Y-36810668D02*
X167700922Y-36629515D01*
X167685064Y-36524222D01*
X167654491Y-36464219D01*
X167548056Y-36329497D01*
X167381618Y-36225348D01*
X167019310Y-36107627D01*
X166914018Y-36123485D01*
X166854015Y-36154058D01*
X166779296Y-36229920D01*
X166720435Y-36411074D01*
X166736294Y-36516366D01*
X166766867Y-36576370D01*
X166842729Y-36651088D01*
X167069170Y-36724664D01*
X167174462Y-36708805D01*
X167234467Y-36678232D01*
X167309185Y-36602371D01*
X167368046Y-36421216D01*
X167352188Y-36315925D01*
X167321613Y-36255921D01*
X167245752Y-36181202D01*
X144598180Y-41012976D02*
X144381993Y-40588687D01*
X145273000Y-40134696D01*
X145216228Y-41072173D02*
X145367558Y-41369176D01*
X144965696Y-41734267D02*
X144749510Y-41309978D01*
X145640516Y-40855988D01*
X145856702Y-41280277D01*
X145160263Y-42116127D02*
X146051270Y-41662136D01*
X146159362Y-41874281D01*
X146181790Y-42023187D01*
X146140169Y-42151281D01*
X146076930Y-42236947D01*
X145928833Y-42365851D01*
X145801546Y-42430707D01*
X145610212Y-42474752D01*
X145503736Y-42475561D01*
X145375641Y-42433940D01*
X145268356Y-42328271D01*
X145160263Y-42116127D01*
X145852058Y-43473852D02*
X145592635Y-42964705D01*
X145722346Y-43219278D02*
X146613353Y-42765287D01*
X146442829Y-42745285D01*
X146314734Y-42703665D01*
X146229068Y-42640426D01*
X147024106Y-43571436D02*
X147067344Y-43656295D01*
X147068152Y-43762771D01*
X147047342Y-43826818D01*
X146984103Y-43912484D01*
X146836006Y-44041387D01*
X146623861Y-44149481D01*
X146432527Y-44193526D01*
X146326051Y-44194334D01*
X146262003Y-44173524D01*
X146176337Y-44110285D01*
X146133100Y-44025427D01*
X146132291Y-43918950D01*
X146153102Y-43854903D01*
X146216341Y-43769237D01*
X146364438Y-43640334D01*
X146576583Y-43532240D01*
X146767917Y-43488195D01*
X146874393Y-43487387D01*
X146938440Y-43508197D01*
X147024106Y-43571436D01*
X128466274Y-95223886D02*
X128081028Y-94943987D01*
X128668813Y-94134971D01*
X129043834Y-94996043D02*
X129313507Y-95191971D01*
X129121193Y-95699712D02*
X128735947Y-95419814D01*
X129323732Y-94610797D01*
X129708978Y-94890695D01*
X129467914Y-95951620D02*
X130055700Y-95142603D01*
X130248323Y-95282551D01*
X130335907Y-95405046D01*
X130356977Y-95538074D01*
X130339522Y-95643113D01*
X130266088Y-95825201D01*
X130182118Y-95940776D01*
X130031634Y-96066884D01*
X129937130Y-96115944D01*
X129804102Y-96137014D01*
X129660537Y-96091568D01*
X129467914Y-95951620D01*
X130700703Y-96847293D02*
X130238407Y-96511415D01*
X130469554Y-96679354D02*
X131057340Y-95870337D01*
X130896321Y-95929931D01*
X130763292Y-95951000D01*
X130658254Y-95933546D01*
X131471195Y-97407088D02*
X131008899Y-97071211D01*
X131240047Y-97239149D02*
X131827832Y-96430132D01*
X131666814Y-96489726D01*
X131533785Y-96510796D01*
X131428746Y-96493341D01*
X109670274Y-81253886D02*
X109285028Y-80973987D01*
X109872813Y-80164971D01*
X110247834Y-81026043D02*
X110517507Y-81221971D01*
X110325193Y-81729712D02*
X109939947Y-81449814D01*
X110527732Y-80640797D01*
X110912978Y-80920695D01*
X110671914Y-81981620D02*
X111259700Y-81172603D01*
X111452323Y-81312551D01*
X111539907Y-81435046D01*
X111560977Y-81568074D01*
X111543522Y-81673113D01*
X111470088Y-81855201D01*
X111386118Y-81970776D01*
X111235634Y-82096884D01*
X111141130Y-82145944D01*
X111008102Y-82167014D01*
X110864537Y-82121568D01*
X110671914Y-81981620D01*
X111904703Y-82877293D02*
X111442407Y-82541415D01*
X111673554Y-82709354D02*
X112261340Y-81900337D01*
X112100321Y-81959931D01*
X111967292Y-81981000D01*
X111862254Y-81963546D01*
X112744705Y-82369243D02*
X112811219Y-82358708D01*
X112916258Y-82376163D01*
X113108882Y-82516112D01*
X113157941Y-82610616D01*
X113168476Y-82677131D01*
X113151021Y-82782169D01*
X113095042Y-82859219D01*
X112972548Y-82946803D01*
X112174375Y-83073221D01*
X112675195Y-83437088D01*
X106082729Y-51620691D02*
X106008237Y-51150363D01*
X106995925Y-50993928D01*
X106652235Y-51867978D02*
X106704380Y-52197208D01*
X106209367Y-52420248D02*
X106134874Y-51949920D01*
X107122562Y-51793486D01*
X107197055Y-52263814D01*
X106276410Y-52843543D02*
X107264098Y-52687109D01*
X107301345Y-52922272D01*
X107276660Y-53070821D01*
X107197493Y-53179785D01*
X107110877Y-53241716D01*
X106930195Y-53318546D01*
X106789096Y-53340893D01*
X106593516Y-53323658D01*
X106492001Y-53291524D01*
X106383037Y-53212357D01*
X106313656Y-53078707D01*
X106276410Y-52843543D01*
X106514786Y-54348592D02*
X106425395Y-53784199D01*
X106470091Y-54066395D02*
X107457779Y-53909961D01*
X107301782Y-53838243D01*
X107192818Y-53759076D01*
X107130887Y-53672460D01*
X107554620Y-54521387D02*
X107651460Y-55132814D01*
X107223053Y-54863177D01*
X107245401Y-55004277D01*
X107213267Y-55105791D01*
X107173683Y-55160273D01*
X107087066Y-55222205D01*
X106851903Y-55259451D01*
X106750388Y-55227317D01*
X106695906Y-55187733D01*
X106633975Y-55101117D01*
X106589279Y-54818920D01*
X106621413Y-54717405D01*
X106660997Y-54662923D01*
X88334274Y-66267886D02*
X87949028Y-65987987D01*
X88536813Y-65178971D01*
X88911834Y-66040043D02*
X89181507Y-66235971D01*
X88989193Y-66743712D02*
X88603947Y-66463814D01*
X89191732Y-65654797D01*
X89576978Y-65934695D01*
X89335914Y-66995620D02*
X89923700Y-66186603D01*
X90116323Y-66326551D01*
X90203907Y-66449046D01*
X90224977Y-66582074D01*
X90207522Y-66687113D01*
X90134088Y-66869201D01*
X90050118Y-66984776D01*
X89899634Y-67110884D01*
X89805130Y-67159944D01*
X89672102Y-67181014D01*
X89528537Y-67135568D01*
X89335914Y-66995620D01*
X90568703Y-67891293D02*
X90106407Y-67555415D01*
X90337554Y-67723354D02*
X90925340Y-66914337D01*
X90764321Y-66973931D01*
X90631292Y-66995000D01*
X90526254Y-66977546D01*
X91654003Y-67855764D02*
X91262146Y-68395109D01*
X91685297Y-67407618D02*
X91072827Y-67845538D01*
X91573648Y-68209406D01*
X85910691Y-88735271D02*
X85440363Y-88809763D01*
X85283928Y-87822075D01*
X86157978Y-88165765D02*
X86487208Y-88113620D01*
X86710248Y-88608633D02*
X86239920Y-88683126D01*
X86083486Y-87695438D01*
X86553814Y-87620945D01*
X87133543Y-88541590D02*
X86977109Y-87553902D01*
X87212272Y-87516655D01*
X87360821Y-87541340D01*
X87469785Y-87620507D01*
X87531716Y-87707123D01*
X87608546Y-87887805D01*
X87630893Y-88028904D01*
X87613658Y-88224484D01*
X87581524Y-88325999D01*
X87502357Y-88434963D01*
X87368707Y-88504344D01*
X87133543Y-88541590D01*
X88638592Y-88303214D02*
X88074199Y-88392605D01*
X88356395Y-88347909D02*
X88199961Y-87360221D01*
X88128243Y-87516218D01*
X88049076Y-87625182D01*
X87962460Y-87687113D01*
X89375781Y-87173989D02*
X88905452Y-87248482D01*
X88932912Y-87726258D01*
X88972496Y-87671776D01*
X89059112Y-87609845D01*
X89294277Y-87572599D01*
X89395791Y-87604733D01*
X89450273Y-87644317D01*
X89512205Y-87730934D01*
X89549451Y-87966097D01*
X89517317Y-88067612D01*
X89477733Y-88122094D01*
X89391117Y-88184025D01*
X89155952Y-88221272D01*
X89054438Y-88189138D01*
X88999956Y-88149554D01*
X134890576Y-119197200D02*
X134505330Y-119477098D01*
X133917544Y-118668081D01*
X134852360Y-118577501D02*
X135122033Y-118381572D01*
X135545495Y-118721374D02*
X135160248Y-119001272D01*
X134572463Y-118192255D01*
X134957710Y-117912357D01*
X135892216Y-118469466D02*
X135304431Y-117660449D01*
X135497054Y-117520501D01*
X135640618Y-117475055D01*
X135773647Y-117496125D01*
X135868151Y-117545184D01*
X136018634Y-117671293D01*
X136102604Y-117786868D01*
X136176039Y-117968956D01*
X136193493Y-118073995D01*
X136172424Y-118207023D01*
X136084839Y-118329518D01*
X135892216Y-118469466D01*
X137125004Y-117573793D02*
X136662709Y-117909671D01*
X136893856Y-117741732D02*
X136306071Y-116932715D01*
X136312991Y-117104269D01*
X136291921Y-117237297D01*
X136242862Y-117331801D01*
X137230662Y-116260960D02*
X137076563Y-116372920D01*
X137027504Y-116467424D01*
X137016969Y-116533938D01*
X137023889Y-116705491D01*
X137097323Y-116887580D01*
X137321242Y-117195777D01*
X137415746Y-117244836D01*
X137482260Y-117255371D01*
X137587299Y-117237916D01*
X137741398Y-117125957D01*
X137790458Y-117031453D01*
X137800993Y-116964938D01*
X137783538Y-116859899D01*
X137643589Y-116667277D01*
X137549084Y-116618216D01*
X137482570Y-116607681D01*
X137377531Y-116625136D01*
X137223432Y-116737096D01*
X137174373Y-116831600D01*
X137163838Y-116898114D01*
X137181293Y-117003154D01*
X114062576Y-134945200D02*
X113677330Y-135225098D01*
X113089544Y-134416081D01*
X114024360Y-134325501D02*
X114294033Y-134129572D01*
X114717495Y-134469374D02*
X114332248Y-134749272D01*
X113744463Y-133940255D01*
X114129710Y-133660357D01*
X115064216Y-134217466D02*
X114476431Y-133408449D01*
X114669054Y-133268501D01*
X114812618Y-133223055D01*
X114945647Y-133244125D01*
X115040151Y-133293184D01*
X115190634Y-133419293D01*
X115274604Y-133534868D01*
X115348039Y-133716956D01*
X115365493Y-133821995D01*
X115344424Y-133955023D01*
X115256839Y-134077518D01*
X115064216Y-134217466D01*
X116297004Y-133321793D02*
X115834709Y-133657671D01*
X116065856Y-133489732D02*
X115478071Y-132680715D01*
X115484991Y-132852269D01*
X115463921Y-132985297D01*
X115414862Y-133079801D01*
X115978891Y-132316848D02*
X116518236Y-131924991D01*
X116759299Y-132985916D01*
X85436113Y-128622170D02*
X84965785Y-128547678D01*
X85122219Y-127559989D01*
X85847284Y-128156954D02*
X86176514Y-128209099D01*
X86235670Y-128748808D02*
X85765342Y-128674315D01*
X85921777Y-127686627D01*
X86392105Y-127761119D01*
X86658965Y-128815851D02*
X86815400Y-127828163D01*
X87050563Y-127865409D01*
X87184213Y-127934790D01*
X87263380Y-128043754D01*
X87295514Y-128145268D01*
X87312750Y-128340848D01*
X87290402Y-128481948D01*
X87213572Y-128662629D01*
X87151641Y-128749245D01*
X87042677Y-128828412D01*
X86894129Y-128853097D01*
X86658965Y-128815851D01*
X88164014Y-129054227D02*
X87599621Y-128964836D01*
X87881817Y-129009532D02*
X88038252Y-128021843D01*
X87921838Y-128148043D01*
X87812874Y-128227210D01*
X87711360Y-128259344D01*
X88817798Y-128579225D02*
X88731182Y-128517293D01*
X88691599Y-128462811D01*
X88659464Y-128361297D01*
X88666914Y-128314264D01*
X88728845Y-128227648D01*
X88783327Y-128188064D01*
X88884842Y-128155930D01*
X89072974Y-128185727D01*
X89159590Y-128247658D01*
X89199173Y-128302140D01*
X89231307Y-128403655D01*
X89223858Y-128450688D01*
X89161927Y-128537304D01*
X89107445Y-128576888D01*
X89005930Y-128609022D01*
X88817798Y-128579225D01*
X88716284Y-128611359D01*
X88661802Y-128650942D01*
X88599870Y-128737560D01*
X88570073Y-128925690D01*
X88602207Y-129027205D01*
X88641791Y-129081687D01*
X88728407Y-129143618D01*
X88916539Y-129173416D01*
X89018054Y-129141281D01*
X89072536Y-129101698D01*
X89134467Y-129015082D01*
X89164264Y-128826951D01*
X89132130Y-128725435D01*
X89092546Y-128670953D01*
X89005930Y-128609022D01*
X93488576Y-149931200D02*
X93103330Y-150211098D01*
X92515544Y-149402081D01*
X93450360Y-149311501D02*
X93720033Y-149115572D01*
X94143495Y-149455374D02*
X93758248Y-149735272D01*
X93170463Y-148926255D01*
X93555710Y-148646357D01*
X94490216Y-149203466D02*
X93902431Y-148394449D01*
X94095054Y-148254501D01*
X94238618Y-148209055D01*
X94371647Y-148230125D01*
X94466151Y-148279184D01*
X94616634Y-148405293D01*
X94700604Y-148520868D01*
X94774039Y-148702956D01*
X94791493Y-148807995D01*
X94770424Y-148941023D01*
X94682839Y-149063518D01*
X94490216Y-149203466D01*
X95723004Y-148307793D02*
X95260709Y-148643671D01*
X95491856Y-148475732D02*
X94904071Y-147666715D01*
X94910991Y-147838269D01*
X94889921Y-147971297D01*
X94840862Y-148065801D01*
X96108250Y-148027896D02*
X96262348Y-147915937D01*
X96311409Y-147821432D01*
X96321943Y-147754918D01*
X96315023Y-147583365D01*
X96241589Y-147401277D01*
X96017670Y-147093079D01*
X95923166Y-147044020D01*
X95856652Y-147033485D01*
X95751613Y-147050940D01*
X95597514Y-147162899D01*
X95548455Y-147257403D01*
X95537920Y-147323918D01*
X95555375Y-147428957D01*
X95695323Y-147621580D01*
X95789827Y-147670639D01*
X95856342Y-147681175D01*
X95961381Y-147663720D01*
X96115480Y-147551760D01*
X96164540Y-147457256D01*
X96175074Y-147390741D01*
X96157619Y-147285702D01*
X113890170Y-158911887D02*
X113815678Y-159382215D01*
X112827989Y-159225781D01*
X113424954Y-158500716D02*
X113477099Y-158171486D01*
X114016808Y-158112330D02*
X113942315Y-158582658D01*
X112954627Y-158426223D01*
X113029119Y-157955895D01*
X114083851Y-157689035D02*
X113096163Y-157532600D01*
X113133409Y-157297437D01*
X113202790Y-157163787D01*
X113311754Y-157084620D01*
X113413268Y-157052486D01*
X113608848Y-157035250D01*
X113749948Y-157057598D01*
X113930629Y-157134428D01*
X114017245Y-157196359D01*
X114096412Y-157305323D01*
X114121097Y-157453871D01*
X114083851Y-157689035D01*
X113339213Y-156606843D02*
X113299630Y-156552361D01*
X113267496Y-156450847D01*
X113304742Y-156215682D01*
X113366673Y-156129066D01*
X113421155Y-156089482D01*
X113522670Y-156057348D01*
X113616735Y-156072247D01*
X113750384Y-156141627D01*
X114225387Y-156795412D01*
X114322227Y-156183986D01*
X113431379Y-155416126D02*
X113446278Y-155322059D01*
X113508209Y-155235443D01*
X113562691Y-155195859D01*
X113664206Y-155163725D01*
X113859786Y-155146490D01*
X114094951Y-155183736D01*
X114275632Y-155260566D01*
X114362249Y-155322497D01*
X114401832Y-155376979D01*
X114433966Y-155478494D01*
X114419068Y-155572560D01*
X114357136Y-155659176D01*
X114302654Y-155698760D01*
X114201140Y-155730894D01*
X114005560Y-155748130D01*
X113770395Y-155710883D01*
X113589713Y-155634054D01*
X113503097Y-155572122D01*
X113463514Y-155517640D01*
X113431379Y-155416126D01*
X157853502Y-122001073D02*
X157706351Y-121548188D01*
X158657408Y-121239171D01*
X158454681Y-122156225D02*
X158557687Y-122473245D01*
X158103659Y-122770976D02*
X157956508Y-122318091D01*
X158907565Y-122009074D01*
X159054716Y-122461959D01*
X158236095Y-123178571D02*
X159187151Y-122869554D01*
X159260727Y-123095996D01*
X159259584Y-123246577D01*
X159198437Y-123366584D01*
X159122576Y-123441303D01*
X158956137Y-123545451D01*
X158820271Y-123589597D01*
X158624403Y-123603169D01*
X158519111Y-123587311D01*
X158399104Y-123526164D01*
X158309670Y-123405013D01*
X158236095Y-123178571D01*
X159390877Y-123804753D02*
X159450880Y-123835326D01*
X159525599Y-123911187D01*
X159599174Y-124137630D01*
X159583316Y-124242922D01*
X159552743Y-124302925D01*
X159476881Y-124377644D01*
X159386304Y-124407074D01*
X159235724Y-124405931D01*
X158515682Y-124039051D01*
X158706978Y-124627801D01*
X159001280Y-125533569D02*
X158824699Y-124990108D01*
X158912989Y-125261838D02*
X159864046Y-124952821D01*
X159698750Y-124906389D01*
X159578744Y-124845243D01*
X159504025Y-124769381D01*
X164457502Y-143337073D02*
X164310351Y-142884188D01*
X165261408Y-142575171D01*
X165058681Y-143492225D02*
X165161687Y-143809245D01*
X164707659Y-144106976D02*
X164560508Y-143654091D01*
X165511565Y-143345074D01*
X165658716Y-143797959D01*
X164840095Y-144514571D02*
X165791151Y-144205554D01*
X165864727Y-144431996D01*
X165863584Y-144582577D01*
X165802437Y-144702584D01*
X165726576Y-144777303D01*
X165560137Y-144881451D01*
X165424271Y-144925597D01*
X165228403Y-144939169D01*
X165123111Y-144923311D01*
X165003104Y-144862164D01*
X164913670Y-144741013D01*
X164840095Y-144514571D01*
X165994877Y-145140753D02*
X166054880Y-145171326D01*
X166129599Y-145247187D01*
X166203174Y-145473630D01*
X166187316Y-145578922D01*
X166156743Y-145638925D01*
X166080881Y-145713644D01*
X165990304Y-145743074D01*
X165839724Y-145741931D01*
X165119682Y-145375051D01*
X165310978Y-145963801D01*
X166289178Y-146046521D02*
X166349182Y-146077094D01*
X166423900Y-146152956D01*
X166497476Y-146379398D01*
X166481618Y-146484690D01*
X166451045Y-146544694D01*
X166375183Y-146619412D01*
X166284606Y-146648842D01*
X166134026Y-146647699D01*
X165413984Y-146280819D01*
X165605280Y-146869569D01*
X152149375Y-172379711D02*
X151933188Y-172804000D01*
X151042182Y-172350010D01*
X151833986Y-171844905D02*
X151985317Y-171547902D01*
X152516891Y-171658420D02*
X152300705Y-172082709D01*
X151409698Y-171628719D01*
X151625884Y-171204429D01*
X152711458Y-171276560D02*
X151820451Y-170822570D01*
X151928544Y-170610426D01*
X152035829Y-170504757D01*
X152163924Y-170463136D01*
X152270400Y-170463945D01*
X152461734Y-170507990D01*
X152589022Y-170572846D01*
X152737118Y-170701749D01*
X152800358Y-170787415D01*
X152841978Y-170915510D01*
X152819551Y-171064416D01*
X152711458Y-171276560D01*
X152337681Y-170017229D02*
X152316871Y-169953182D01*
X152317679Y-169846706D01*
X152425772Y-169634561D01*
X152511438Y-169571322D01*
X152575486Y-169550511D01*
X152681962Y-169551320D01*
X152766820Y-169594557D01*
X152872488Y-169701841D01*
X153122211Y-170470412D01*
X153403253Y-169918836D01*
X152663577Y-169167843D02*
X152944619Y-168616268D01*
X153132719Y-169086219D01*
X153197575Y-168958932D01*
X153283241Y-168895692D01*
X153347288Y-168874882D01*
X153453766Y-168875691D01*
X153665910Y-168983784D01*
X153729149Y-169069450D01*
X153749959Y-169133497D01*
X153749151Y-169239973D01*
X153619439Y-169494547D01*
X153533773Y-169557786D01*
X153469725Y-169578597D01*
X172077502Y-168737073D02*
X171930351Y-168284188D01*
X172881408Y-167975171D01*
X172678681Y-168892225D02*
X172781687Y-169209245D01*
X172327659Y-169506976D02*
X172180508Y-169054091D01*
X173131565Y-168745074D01*
X173278716Y-169197959D01*
X172460095Y-169914571D02*
X173411151Y-169605554D01*
X173484727Y-169831996D01*
X173483584Y-169982577D01*
X173422437Y-170102584D01*
X173346576Y-170177303D01*
X173180137Y-170281451D01*
X173044271Y-170325597D01*
X172848403Y-170339169D01*
X172743111Y-170323311D01*
X172623104Y-170262164D01*
X172533670Y-170141013D01*
X172460095Y-169914571D01*
X173614877Y-170540753D02*
X173674880Y-170571326D01*
X173749599Y-170647187D01*
X173823174Y-170873630D01*
X173807316Y-170978922D01*
X173776743Y-171038925D01*
X173700881Y-171113644D01*
X173610304Y-171143074D01*
X173459724Y-171141931D01*
X172739682Y-170775051D01*
X172930978Y-171363801D01*
X173829888Y-171972981D02*
X173195850Y-172178992D01*
X174118619Y-171628817D02*
X173365717Y-171623102D01*
X173557014Y-172211852D01*
X185890223Y-154040329D02*
X185465934Y-153824142D01*
X185919924Y-152933136D01*
X186425029Y-153724940D02*
X186722032Y-153876271D01*
X186611514Y-154407845D02*
X186187225Y-154191659D01*
X186641215Y-153300652D01*
X187065505Y-153516838D01*
X186993374Y-154602412D02*
X187447364Y-153711405D01*
X187659508Y-153819498D01*
X187765177Y-153926783D01*
X187806798Y-154054878D01*
X187805989Y-154161354D01*
X187761944Y-154352688D01*
X187697088Y-154479976D01*
X187568185Y-154628072D01*
X187482519Y-154691312D01*
X187354424Y-154732932D01*
X187205518Y-154710505D01*
X186993374Y-154602412D01*
X188252705Y-154228635D02*
X188316752Y-154207825D01*
X188423228Y-154208633D01*
X188635373Y-154316726D01*
X188698612Y-154402392D01*
X188719423Y-154466440D01*
X188718614Y-154572916D01*
X188675377Y-154657774D01*
X188568093Y-154763442D01*
X187799522Y-155013165D01*
X188351098Y-155294207D01*
X189611238Y-154813954D02*
X189186948Y-154597768D01*
X188928334Y-155000438D01*
X188992381Y-154979627D01*
X189098857Y-154980436D01*
X189311002Y-155088529D01*
X189374242Y-155174195D01*
X189395052Y-155238242D01*
X189394243Y-155344720D01*
X189286150Y-155556864D01*
X189200484Y-155620103D01*
X189136437Y-155640913D01*
X189029961Y-155640105D01*
X188817815Y-155532011D01*
X188754576Y-155446345D01*
X188733766Y-155382298D01*
X153503334Y-162056143D02*
X153455715Y-162103762D01*
X153312858Y-162151381D01*
X153217620Y-162151381D01*
X153074762Y-162103762D01*
X152979524Y-162008524D01*
X152931905Y-161913286D01*
X152884286Y-161722810D01*
X152884286Y-161579952D01*
X152931905Y-161389476D01*
X152979524Y-161294238D01*
X153074762Y-161199000D01*
X153217620Y-161151381D01*
X153312858Y-161151381D01*
X153455715Y-161199000D01*
X153503334Y-161246619D01*
X153884286Y-161246619D02*
X153931905Y-161199000D01*
X154027143Y-161151381D01*
X154265239Y-161151381D01*
X154360477Y-161199000D01*
X154408096Y-161246619D01*
X154455715Y-161341857D01*
X154455715Y-161437095D01*
X154408096Y-161579952D01*
X153836667Y-162151381D01*
X154455715Y-162151381D01*
X167898143Y-163615666D02*
X167945762Y-163663285D01*
X167993381Y-163806142D01*
X167993381Y-163901380D01*
X167945762Y-164044238D01*
X167850524Y-164139476D01*
X167755286Y-164187095D01*
X167564810Y-164234714D01*
X167421952Y-164234714D01*
X167231476Y-164187095D01*
X167136238Y-164139476D01*
X167041000Y-164044238D01*
X166993381Y-163901380D01*
X166993381Y-163806142D01*
X167041000Y-163663285D01*
X167088619Y-163615666D01*
X166993381Y-163282333D02*
X166993381Y-162663285D01*
X167374333Y-162996619D01*
X167374333Y-162853761D01*
X167421952Y-162758523D01*
X167469571Y-162710904D01*
X167564810Y-162663285D01*
X167802905Y-162663285D01*
X167898143Y-162710904D01*
X167945762Y-162758523D01*
X167993381Y-162853761D01*
X167993381Y-163139476D01*
X167945762Y-163234714D01*
X167898143Y-163282333D01*
X159897143Y-137453666D02*
X159944762Y-137501285D01*
X159992381Y-137644142D01*
X159992381Y-137739380D01*
X159944762Y-137882238D01*
X159849524Y-137977476D01*
X159754286Y-138025095D01*
X159563810Y-138072714D01*
X159420952Y-138072714D01*
X159230476Y-138025095D01*
X159135238Y-137977476D01*
X159040000Y-137882238D01*
X158992381Y-137739380D01*
X158992381Y-137644142D01*
X159040000Y-137501285D01*
X159087619Y-137453666D01*
X159325714Y-136596523D02*
X159992381Y-136596523D01*
X158944762Y-136834619D02*
X159659048Y-137072714D01*
X159659048Y-136453666D01*
X153400634Y-121181515D02*
X153370061Y-121241518D01*
X153248911Y-121330952D01*
X153158334Y-121360382D01*
X153007753Y-121359239D01*
X152887746Y-121298093D01*
X152813028Y-121222231D01*
X152708879Y-121055793D01*
X152664734Y-120919927D01*
X152651162Y-120724058D01*
X152667020Y-120618766D01*
X152728167Y-120498759D01*
X152849317Y-120409325D01*
X152939894Y-120379895D01*
X153090474Y-120381038D01*
X153150478Y-120411612D01*
X153981527Y-120041448D02*
X153528643Y-120188599D01*
X153630505Y-120656198D01*
X153661079Y-120596195D01*
X153736940Y-120521476D01*
X153963383Y-120447900D01*
X154068675Y-120463758D01*
X154128678Y-120494332D01*
X154203397Y-120570194D01*
X154276972Y-120796636D01*
X154261114Y-120901928D01*
X154230541Y-120961931D01*
X154154679Y-121036650D01*
X153928237Y-121110226D01*
X153822945Y-121094367D01*
X153762941Y-121063794D01*
X113161143Y-149645666D02*
X113208762Y-149693285D01*
X113256381Y-149836142D01*
X113256381Y-149931380D01*
X113208762Y-150074238D01*
X113113524Y-150169476D01*
X113018286Y-150217095D01*
X112827810Y-150264714D01*
X112684952Y-150264714D01*
X112494476Y-150217095D01*
X112399238Y-150169476D01*
X112304000Y-150074238D01*
X112256381Y-149931380D01*
X112256381Y-149836142D01*
X112304000Y-149693285D01*
X112351619Y-149645666D01*
X112256381Y-148788523D02*
X112256381Y-148979000D01*
X112304000Y-149074238D01*
X112351619Y-149121857D01*
X112494476Y-149217095D01*
X112684952Y-149264714D01*
X113065905Y-149264714D01*
X113161143Y-149217095D01*
X113208762Y-149169476D01*
X113256381Y-149074238D01*
X113256381Y-148883761D01*
X113208762Y-148788523D01*
X113161143Y-148740904D01*
X113065905Y-148693285D01*
X112827810Y-148693285D01*
X112732571Y-148740904D01*
X112684952Y-148788523D01*
X112637333Y-148883761D01*
X112637333Y-149074238D01*
X112684952Y-149169476D01*
X112732571Y-149217095D01*
X112827810Y-149264714D01*
X99757464Y-141973119D02*
X99746929Y-142039633D01*
X99659345Y-142162127D01*
X99582296Y-142218106D01*
X99438731Y-142263551D01*
X99305703Y-142242482D01*
X99211199Y-142193422D01*
X99060715Y-142067314D01*
X98976745Y-141951739D01*
X98903311Y-141769651D01*
X98885856Y-141664612D01*
X98906926Y-141531584D01*
X98994511Y-141409089D01*
X99071560Y-141353110D01*
X99215123Y-141307665D01*
X99281637Y-141318200D01*
X99495330Y-141045223D02*
X100034675Y-140653365D01*
X100275738Y-141714291D01*
X92543334Y-128147143D02*
X92495715Y-128194762D01*
X92352858Y-128242381D01*
X92257620Y-128242381D01*
X92114762Y-128194762D01*
X92019524Y-128099524D01*
X91971905Y-128004286D01*
X91924286Y-127813810D01*
X91924286Y-127670952D01*
X91971905Y-127480476D01*
X92019524Y-127385238D01*
X92114762Y-127290000D01*
X92257620Y-127242381D01*
X92352858Y-127242381D01*
X92495715Y-127290000D01*
X92543334Y-127337619D01*
X93114762Y-127670952D02*
X93019524Y-127623333D01*
X92971905Y-127575714D01*
X92924286Y-127480476D01*
X92924286Y-127432857D01*
X92971905Y-127337619D01*
X93019524Y-127290000D01*
X93114762Y-127242381D01*
X93305239Y-127242381D01*
X93400477Y-127290000D01*
X93448096Y-127337619D01*
X93495715Y-127432857D01*
X93495715Y-127480476D01*
X93448096Y-127575714D01*
X93400477Y-127623333D01*
X93305239Y-127670952D01*
X93114762Y-127670952D01*
X93019524Y-127718571D01*
X92971905Y-127766190D01*
X92924286Y-127861429D01*
X92924286Y-128051905D01*
X92971905Y-128147143D01*
X93019524Y-128194762D01*
X93114762Y-128242381D01*
X93305239Y-128242381D01*
X93400477Y-128194762D01*
X93448096Y-128147143D01*
X93495715Y-128051905D01*
X93495715Y-127861429D01*
X93448096Y-127766190D01*
X93400477Y-127718571D01*
X93305239Y-127670952D01*
X119594334Y-125734143D02*
X119546715Y-125781762D01*
X119403858Y-125829381D01*
X119308620Y-125829381D01*
X119165762Y-125781762D01*
X119070524Y-125686524D01*
X119022905Y-125591286D01*
X118975286Y-125400810D01*
X118975286Y-125257952D01*
X119022905Y-125067476D01*
X119070524Y-124972238D01*
X119165762Y-124877000D01*
X119308620Y-124829381D01*
X119403858Y-124829381D01*
X119546715Y-124877000D01*
X119594334Y-124924619D01*
X120070524Y-125829381D02*
X120261000Y-125829381D01*
X120356239Y-125781762D01*
X120403858Y-125734143D01*
X120499096Y-125591286D01*
X120546715Y-125400810D01*
X120546715Y-125019857D01*
X120499096Y-124924619D01*
X120451477Y-124877000D01*
X120356239Y-124829381D01*
X120165762Y-124829381D01*
X120070524Y-124877000D01*
X120022905Y-124924619D01*
X119975286Y-125019857D01*
X119975286Y-125257952D01*
X120022905Y-125353190D01*
X120070524Y-125400810D01*
X120165762Y-125448429D01*
X120356239Y-125448429D01*
X120451477Y-125400810D01*
X120499096Y-125353190D01*
X120546715Y-125257952D01*
X178935143Y-154761143D02*
X178887524Y-154808762D01*
X178744667Y-154856381D01*
X178649429Y-154856381D01*
X178506571Y-154808762D01*
X178411333Y-154713524D01*
X178363714Y-154618286D01*
X178316095Y-154427810D01*
X178316095Y-154284952D01*
X178363714Y-154094476D01*
X178411333Y-153999238D01*
X178506571Y-153904000D01*
X178649429Y-153856381D01*
X178744667Y-153856381D01*
X178887524Y-153904000D01*
X178935143Y-153951619D01*
X179887524Y-154856381D02*
X179316095Y-154856381D01*
X179601809Y-154856381D02*
X179601809Y-153856381D01*
X179506571Y-153999238D01*
X179411333Y-154094476D01*
X179316095Y-154142095D01*
X180506571Y-153856381D02*
X180601810Y-153856381D01*
X180697048Y-153904000D01*
X180744667Y-153951619D01*
X180792286Y-154046857D01*
X180839905Y-154237333D01*
X180839905Y-154475429D01*
X180792286Y-154665905D01*
X180744667Y-154761143D01*
X180697048Y-154808762D01*
X180601810Y-154856381D01*
X180506571Y-154856381D01*
X180411333Y-154808762D01*
X180363714Y-154761143D01*
X180316095Y-154665905D01*
X180268476Y-154475429D01*
X180268476Y-154237333D01*
X180316095Y-154046857D01*
X180363714Y-153951619D01*
X180411333Y-153904000D01*
X180506571Y-153856381D01*
X138815143Y-112910857D02*
X138862762Y-112958476D01*
X138910381Y-113101333D01*
X138910381Y-113196571D01*
X138862762Y-113339429D01*
X138767524Y-113434667D01*
X138672286Y-113482286D01*
X138481810Y-113529905D01*
X138338952Y-113529905D01*
X138148476Y-113482286D01*
X138053238Y-113434667D01*
X137958000Y-113339429D01*
X137910381Y-113196571D01*
X137910381Y-113101333D01*
X137958000Y-112958476D01*
X138005619Y-112910857D01*
X138910381Y-111958476D02*
X138910381Y-112529905D01*
X138910381Y-112244191D02*
X137910381Y-112244191D01*
X138053238Y-112339429D01*
X138148476Y-112434667D01*
X138196095Y-112529905D01*
X138910381Y-111006095D02*
X138910381Y-111577524D01*
X138910381Y-111291810D02*
X137910381Y-111291810D01*
X138053238Y-111387048D01*
X138148476Y-111482286D01*
X138196095Y-111577524D01*
X136647821Y-98695841D02*
X136582772Y-98678411D01*
X136470104Y-98578503D01*
X136422485Y-98496024D01*
X136392295Y-98348496D01*
X136427155Y-98218399D01*
X136485824Y-98129540D01*
X136626971Y-97993063D01*
X136750690Y-97921634D01*
X136939457Y-97867635D01*
X137045745Y-97861256D01*
X137175842Y-97896115D01*
X137288510Y-97996024D01*
X137336129Y-98078503D01*
X137366319Y-98226030D01*
X137348889Y-98291079D01*
X137041533Y-99568246D02*
X136755818Y-99073374D01*
X136898675Y-99320810D02*
X137764700Y-98820810D01*
X137593364Y-98809760D01*
X137463266Y-98774900D01*
X137374408Y-98716231D01*
X138015555Y-99445779D02*
X138080604Y-99463209D01*
X138169462Y-99521878D01*
X138288510Y-99728075D01*
X138294890Y-99834363D01*
X138277460Y-99899412D01*
X138218791Y-99988270D01*
X138136313Y-100035889D01*
X137988786Y-100066079D01*
X137208199Y-99856921D01*
X137517723Y-100393032D01*
X117848143Y-82554143D02*
X117800524Y-82601762D01*
X117657667Y-82649381D01*
X117562429Y-82649381D01*
X117419571Y-82601762D01*
X117324333Y-82506524D01*
X117276714Y-82411286D01*
X117229095Y-82220810D01*
X117229095Y-82077952D01*
X117276714Y-81887476D01*
X117324333Y-81792238D01*
X117419571Y-81697000D01*
X117562429Y-81649381D01*
X117657667Y-81649381D01*
X117800524Y-81697000D01*
X117848143Y-81744619D01*
X118800524Y-82649381D02*
X118229095Y-82649381D01*
X118514809Y-82649381D02*
X118514809Y-81649381D01*
X118419571Y-81792238D01*
X118324333Y-81887476D01*
X118229095Y-81935095D01*
X119133857Y-81649381D02*
X119752905Y-81649381D01*
X119419571Y-82030333D01*
X119562429Y-82030333D01*
X119657667Y-82077952D01*
X119705286Y-82125571D01*
X119752905Y-82220810D01*
X119752905Y-82458905D01*
X119705286Y-82554143D01*
X119657667Y-82601762D01*
X119562429Y-82649381D01*
X119276714Y-82649381D01*
X119181476Y-82601762D01*
X119133857Y-82554143D01*
X95242143Y-67949143D02*
X95194524Y-67996762D01*
X95051667Y-68044381D01*
X94956429Y-68044381D01*
X94813571Y-67996762D01*
X94718333Y-67901524D01*
X94670714Y-67806286D01*
X94623095Y-67615810D01*
X94623095Y-67472952D01*
X94670714Y-67282476D01*
X94718333Y-67187238D01*
X94813571Y-67092000D01*
X94956429Y-67044381D01*
X95051667Y-67044381D01*
X95194524Y-67092000D01*
X95242143Y-67139619D01*
X96194524Y-68044381D02*
X95623095Y-68044381D01*
X95908809Y-68044381D02*
X95908809Y-67044381D01*
X95813571Y-67187238D01*
X95718333Y-67282476D01*
X95623095Y-67330095D01*
X97051667Y-67377714D02*
X97051667Y-68044381D01*
X96813571Y-66996762D02*
X96575476Y-67711048D01*
X97194524Y-67711048D01*
X94861143Y-84078143D02*
X94813524Y-84125762D01*
X94670667Y-84173381D01*
X94575429Y-84173381D01*
X94432571Y-84125762D01*
X94337333Y-84030524D01*
X94289714Y-83935286D01*
X94242095Y-83744810D01*
X94242095Y-83601952D01*
X94289714Y-83411476D01*
X94337333Y-83316238D01*
X94432571Y-83221000D01*
X94575429Y-83173381D01*
X94670667Y-83173381D01*
X94813524Y-83221000D01*
X94861143Y-83268619D01*
X95813524Y-84173381D02*
X95242095Y-84173381D01*
X95527809Y-84173381D02*
X95527809Y-83173381D01*
X95432571Y-83316238D01*
X95337333Y-83411476D01*
X95242095Y-83459095D01*
X96718286Y-83173381D02*
X96242095Y-83173381D01*
X96194476Y-83649571D01*
X96242095Y-83601952D01*
X96337333Y-83554333D01*
X96575429Y-83554333D01*
X96670667Y-83601952D01*
X96718286Y-83649571D01*
X96765905Y-83744810D01*
X96765905Y-83982905D01*
X96718286Y-84078143D01*
X96670667Y-84125762D01*
X96575429Y-84173381D01*
X96337333Y-84173381D01*
X96242095Y-84125762D01*
X96194476Y-84078143D01*
X108704143Y-57535143D02*
X108656524Y-57582762D01*
X108513667Y-57630381D01*
X108418429Y-57630381D01*
X108275571Y-57582762D01*
X108180333Y-57487524D01*
X108132714Y-57392286D01*
X108085095Y-57201810D01*
X108085095Y-57058952D01*
X108132714Y-56868476D01*
X108180333Y-56773238D01*
X108275571Y-56678000D01*
X108418429Y-56630381D01*
X108513667Y-56630381D01*
X108656524Y-56678000D01*
X108704143Y-56725619D01*
X109656524Y-57630381D02*
X109085095Y-57630381D01*
X109370809Y-57630381D02*
X109370809Y-56630381D01*
X109275571Y-56773238D01*
X109180333Y-56868476D01*
X109085095Y-56916095D01*
X110513667Y-56630381D02*
X110323190Y-56630381D01*
X110227952Y-56678000D01*
X110180333Y-56725619D01*
X110085095Y-56868476D01*
X110037476Y-57058952D01*
X110037476Y-57439905D01*
X110085095Y-57535143D01*
X110132714Y-57582762D01*
X110227952Y-57630381D01*
X110418429Y-57630381D01*
X110513667Y-57582762D01*
X110561286Y-57535143D01*
X110608905Y-57439905D01*
X110608905Y-57201810D01*
X110561286Y-57106571D01*
X110513667Y-57058952D01*
X110418429Y-57011333D01*
X110227952Y-57011333D01*
X110132714Y-57058952D01*
X110085095Y-57106571D01*
X110037476Y-57201810D01*
X152348143Y-48394857D02*
X152395762Y-48442476D01*
X152443381Y-48585333D01*
X152443381Y-48680571D01*
X152395762Y-48823429D01*
X152300524Y-48918667D01*
X152205286Y-48966286D01*
X152014810Y-49013905D01*
X151871952Y-49013905D01*
X151681476Y-48966286D01*
X151586238Y-48918667D01*
X151491000Y-48823429D01*
X151443381Y-48680571D01*
X151443381Y-48585333D01*
X151491000Y-48442476D01*
X151538619Y-48394857D01*
X152443381Y-47442476D02*
X152443381Y-48013905D01*
X152443381Y-47728191D02*
X151443381Y-47728191D01*
X151586238Y-47823429D01*
X151681476Y-47918667D01*
X151729095Y-48013905D01*
X151443381Y-47109143D02*
X151443381Y-46442476D01*
X152443381Y-46871048D01*
X167334143Y-44330857D02*
X167381762Y-44378476D01*
X167429381Y-44521333D01*
X167429381Y-44616571D01*
X167381762Y-44759429D01*
X167286524Y-44854667D01*
X167191286Y-44902286D01*
X167000810Y-44949905D01*
X166857952Y-44949905D01*
X166667476Y-44902286D01*
X166572238Y-44854667D01*
X166477000Y-44759429D01*
X166429381Y-44616571D01*
X166429381Y-44521333D01*
X166477000Y-44378476D01*
X166524619Y-44330857D01*
X167429381Y-43378476D02*
X167429381Y-43949905D01*
X167429381Y-43664191D02*
X166429381Y-43664191D01*
X166572238Y-43759429D01*
X166667476Y-43854667D01*
X166715095Y-43949905D01*
X166857952Y-42807048D02*
X166810333Y-42902286D01*
X166762714Y-42949905D01*
X166667476Y-42997524D01*
X166619857Y-42997524D01*
X166524619Y-42949905D01*
X166477000Y-42902286D01*
X166429381Y-42807048D01*
X166429381Y-42616571D01*
X166477000Y-42521333D01*
X166524619Y-42473714D01*
X166619857Y-42426095D01*
X166667476Y-42426095D01*
X166762714Y-42473714D01*
X166810333Y-42521333D01*
X166857952Y-42616571D01*
X166857952Y-42807048D01*
X166905571Y-42902286D01*
X166953190Y-42949905D01*
X167048429Y-42997524D01*
X167238905Y-42997524D01*
X167334143Y-42949905D01*
X167381762Y-42902286D01*
X167429381Y-42807048D01*
X167429381Y-42616571D01*
X167381762Y-42521333D01*
X167334143Y-42473714D01*
X167238905Y-42426095D01*
X167048429Y-42426095D01*
X166953190Y-42473714D01*
X166905571Y-42521333D01*
X166857952Y-42616571D01*
X177792143Y-55701143D02*
X177744524Y-55748762D01*
X177601667Y-55796381D01*
X177506429Y-55796381D01*
X177363571Y-55748762D01*
X177268333Y-55653524D01*
X177220714Y-55558286D01*
X177173095Y-55367810D01*
X177173095Y-55224952D01*
X177220714Y-55034476D01*
X177268333Y-54939238D01*
X177363571Y-54844000D01*
X177506429Y-54796381D01*
X177601667Y-54796381D01*
X177744524Y-54844000D01*
X177792143Y-54891619D01*
X178744524Y-55796381D02*
X178173095Y-55796381D01*
X178458809Y-55796381D02*
X178458809Y-54796381D01*
X178363571Y-54939238D01*
X178268333Y-55034476D01*
X178173095Y-55082095D01*
X179220714Y-55796381D02*
X179411190Y-55796381D01*
X179506429Y-55748762D01*
X179554048Y-55701143D01*
X179649286Y-55558286D01*
X179696905Y-55367810D01*
X179696905Y-54986857D01*
X179649286Y-54891619D01*
X179601667Y-54844000D01*
X179506429Y-54796381D01*
X179315952Y-54796381D01*
X179220714Y-54844000D01*
X179173095Y-54891619D01*
X179125476Y-54986857D01*
X179125476Y-55224952D01*
X179173095Y-55320190D01*
X179220714Y-55367810D01*
X179315952Y-55415429D01*
X179506429Y-55415429D01*
X179601667Y-55367810D01*
X179649286Y-55320190D01*
X179696905Y-55224952D01*
X175506143Y-105287143D02*
X175458524Y-105334762D01*
X175315667Y-105382381D01*
X175220429Y-105382381D01*
X175077571Y-105334762D01*
X174982333Y-105239524D01*
X174934714Y-105144286D01*
X174887095Y-104953810D01*
X174887095Y-104810952D01*
X174934714Y-104620476D01*
X174982333Y-104525238D01*
X175077571Y-104430000D01*
X175220429Y-104382381D01*
X175315667Y-104382381D01*
X175458524Y-104430000D01*
X175506143Y-104477619D01*
X175887095Y-104477619D02*
X175934714Y-104430000D01*
X176029952Y-104382381D01*
X176268048Y-104382381D01*
X176363286Y-104430000D01*
X176410905Y-104477619D01*
X176458524Y-104572857D01*
X176458524Y-104668095D01*
X176410905Y-104810952D01*
X175839476Y-105382381D01*
X176458524Y-105382381D01*
X177077571Y-104382381D02*
X177172810Y-104382381D01*
X177268048Y-104430000D01*
X177315667Y-104477619D01*
X177363286Y-104572857D01*
X177410905Y-104763333D01*
X177410905Y-105001429D01*
X177363286Y-105191905D01*
X177315667Y-105287143D01*
X177268048Y-105334762D01*
X177172810Y-105382381D01*
X177077571Y-105382381D01*
X176982333Y-105334762D01*
X176934714Y-105287143D01*
X176887095Y-105191905D01*
X176839476Y-105001429D01*
X176839476Y-104763333D01*
X176887095Y-104572857D01*
X176934714Y-104477619D01*
X176982333Y-104430000D01*
X177077571Y-104382381D01*
X195429143Y-110751857D02*
X195476762Y-110799476D01*
X195524381Y-110942333D01*
X195524381Y-111037571D01*
X195476762Y-111180429D01*
X195381524Y-111275667D01*
X195286286Y-111323286D01*
X195095810Y-111370905D01*
X194952952Y-111370905D01*
X194762476Y-111323286D01*
X194667238Y-111275667D01*
X194572000Y-111180429D01*
X194524381Y-111037571D01*
X194524381Y-110942333D01*
X194572000Y-110799476D01*
X194619619Y-110751857D01*
X194619619Y-110370905D02*
X194572000Y-110323286D01*
X194524381Y-110228048D01*
X194524381Y-109989952D01*
X194572000Y-109894714D01*
X194619619Y-109847095D01*
X194714857Y-109799476D01*
X194810095Y-109799476D01*
X194952952Y-109847095D01*
X195524381Y-110418524D01*
X195524381Y-109799476D01*
X195524381Y-108847095D02*
X195524381Y-109418524D01*
X195524381Y-109132810D02*
X194524381Y-109132810D01*
X194667238Y-109228048D01*
X194762476Y-109323286D01*
X194810095Y-109418524D01*
X198937643Y-93067143D02*
X198890024Y-93114762D01*
X198747167Y-93162381D01*
X198651929Y-93162381D01*
X198509071Y-93114762D01*
X198413833Y-93019524D01*
X198366214Y-92924286D01*
X198318595Y-92733810D01*
X198318595Y-92590952D01*
X198366214Y-92400476D01*
X198413833Y-92305238D01*
X198509071Y-92210000D01*
X198651929Y-92162381D01*
X198747167Y-92162381D01*
X198890024Y-92210000D01*
X198937643Y-92257619D01*
X199318595Y-92257619D02*
X199366214Y-92210000D01*
X199461452Y-92162381D01*
X199699548Y-92162381D01*
X199794786Y-92210000D01*
X199842405Y-92257619D01*
X199890024Y-92352857D01*
X199890024Y-92448095D01*
X199842405Y-92590952D01*
X199270976Y-93162381D01*
X199890024Y-93162381D01*
X200270976Y-92257619D02*
X200318595Y-92210000D01*
X200413833Y-92162381D01*
X200651929Y-92162381D01*
X200747167Y-92210000D01*
X200794786Y-92257619D01*
X200842405Y-92352857D01*
X200842405Y-92448095D01*
X200794786Y-92590952D01*
X200223357Y-93162381D01*
X200842405Y-93162381D01*
X204855143Y-120149857D02*
X204902762Y-120197476D01*
X204950381Y-120340333D01*
X204950381Y-120435571D01*
X204902762Y-120578429D01*
X204807524Y-120673667D01*
X204712286Y-120721286D01*
X204521810Y-120768905D01*
X204378952Y-120768905D01*
X204188476Y-120721286D01*
X204093238Y-120673667D01*
X203998000Y-120578429D01*
X203950381Y-120435571D01*
X203950381Y-120340333D01*
X203998000Y-120197476D01*
X204045619Y-120149857D01*
X204045619Y-119768905D02*
X203998000Y-119721286D01*
X203950381Y-119626048D01*
X203950381Y-119387952D01*
X203998000Y-119292714D01*
X204045619Y-119245095D01*
X204140857Y-119197476D01*
X204236095Y-119197476D01*
X204378952Y-119245095D01*
X204950381Y-119816524D01*
X204950381Y-119197476D01*
X203950381Y-118864143D02*
X203950381Y-118245095D01*
X204331333Y-118578429D01*
X204331333Y-118435571D01*
X204378952Y-118340333D01*
X204426571Y-118292714D01*
X204521810Y-118245095D01*
X204759905Y-118245095D01*
X204855143Y-118292714D01*
X204902762Y-118340333D01*
X204950381Y-118435571D01*
X204950381Y-118721286D01*
X204902762Y-118816524D01*
X204855143Y-118864143D01*
X155313143Y-78744143D02*
X155265524Y-78791762D01*
X155122667Y-78839381D01*
X155027429Y-78839381D01*
X154884571Y-78791762D01*
X154789333Y-78696524D01*
X154741714Y-78601286D01*
X154694095Y-78410810D01*
X154694095Y-78267952D01*
X154741714Y-78077476D01*
X154789333Y-77982238D01*
X154884571Y-77887000D01*
X155027429Y-77839381D01*
X155122667Y-77839381D01*
X155265524Y-77887000D01*
X155313143Y-77934619D01*
X155694095Y-77934619D02*
X155741714Y-77887000D01*
X155836952Y-77839381D01*
X156075048Y-77839381D01*
X156170286Y-77887000D01*
X156217905Y-77934619D01*
X156265524Y-78029857D01*
X156265524Y-78125095D01*
X156217905Y-78267952D01*
X155646476Y-78839381D01*
X156265524Y-78839381D01*
X157122667Y-78172714D02*
X157122667Y-78839381D01*
X156884571Y-77791762D02*
X156646476Y-78506048D01*
X157265524Y-78506048D01*
X160984143Y-70238857D02*
X161031762Y-70286476D01*
X161079381Y-70429333D01*
X161079381Y-70524571D01*
X161031762Y-70667429D01*
X160936524Y-70762667D01*
X160841286Y-70810286D01*
X160650810Y-70857905D01*
X160507952Y-70857905D01*
X160317476Y-70810286D01*
X160222238Y-70762667D01*
X160127000Y-70667429D01*
X160079381Y-70524571D01*
X160079381Y-70429333D01*
X160127000Y-70286476D01*
X160174619Y-70238857D01*
X160174619Y-69857905D02*
X160127000Y-69810286D01*
X160079381Y-69715048D01*
X160079381Y-69476952D01*
X160127000Y-69381714D01*
X160174619Y-69334095D01*
X160269857Y-69286476D01*
X160365095Y-69286476D01*
X160507952Y-69334095D01*
X161079381Y-69905524D01*
X161079381Y-69286476D01*
X160079381Y-68381714D02*
X160079381Y-68857905D01*
X160555571Y-68905524D01*
X160507952Y-68857905D01*
X160460333Y-68762667D01*
X160460333Y-68524571D01*
X160507952Y-68429333D01*
X160555571Y-68381714D01*
X160650810Y-68334095D01*
X160888905Y-68334095D01*
X160984143Y-68381714D01*
X161031762Y-68429333D01*
X161079381Y-68524571D01*
X161079381Y-68762667D01*
X161031762Y-68857905D01*
X160984143Y-68905524D01*
X205033643Y-102909643D02*
X204986024Y-102957262D01*
X204843167Y-103004881D01*
X204747929Y-103004881D01*
X204605071Y-102957262D01*
X204509833Y-102862024D01*
X204462214Y-102766786D01*
X204414595Y-102576310D01*
X204414595Y-102433452D01*
X204462214Y-102242976D01*
X204509833Y-102147738D01*
X204605071Y-102052500D01*
X204747929Y-102004881D01*
X204843167Y-102004881D01*
X204986024Y-102052500D01*
X205033643Y-102100119D01*
X205414595Y-102100119D02*
X205462214Y-102052500D01*
X205557452Y-102004881D01*
X205795548Y-102004881D01*
X205890786Y-102052500D01*
X205938405Y-102100119D01*
X205986024Y-102195357D01*
X205986024Y-102290595D01*
X205938405Y-102433452D01*
X205366976Y-103004881D01*
X205986024Y-103004881D01*
X206843167Y-102004881D02*
X206652690Y-102004881D01*
X206557452Y-102052500D01*
X206509833Y-102100119D01*
X206414595Y-102242976D01*
X206366976Y-102433452D01*
X206366976Y-102814405D01*
X206414595Y-102909643D01*
X206462214Y-102957262D01*
X206557452Y-103004881D01*
X206747929Y-103004881D01*
X206843167Y-102957262D01*
X206890786Y-102909643D01*
X206938405Y-102814405D01*
X206938405Y-102576310D01*
X206890786Y-102481071D01*
X206843167Y-102433452D01*
X206747929Y-102385833D01*
X206557452Y-102385833D01*
X206462214Y-102433452D01*
X206414595Y-102481071D01*
X206366976Y-102576310D01*
X135770881Y-105576666D02*
X135294690Y-105910000D01*
X135770881Y-106148095D02*
X134770881Y-106148095D01*
X134770881Y-105767142D01*
X134818500Y-105671904D01*
X134866119Y-105624285D01*
X134961357Y-105576666D01*
X135104214Y-105576666D01*
X135199452Y-105624285D01*
X135247071Y-105671904D01*
X135294690Y-105767142D01*
X135294690Y-106148095D01*
X135770881Y-104624285D02*
X135770881Y-105195714D01*
X135770881Y-104910000D02*
X134770881Y-104910000D01*
X134913738Y-105005238D01*
X135008976Y-105100476D01*
X135056595Y-105195714D01*
X163964881Y-106402166D02*
X163488690Y-106735500D01*
X163964881Y-106973595D02*
X162964881Y-106973595D01*
X162964881Y-106592642D01*
X163012500Y-106497404D01*
X163060119Y-106449785D01*
X163155357Y-106402166D01*
X163298214Y-106402166D01*
X163393452Y-106449785D01*
X163441071Y-106497404D01*
X163488690Y-106592642D01*
X163488690Y-106973595D01*
X163060119Y-106021214D02*
X163012500Y-105973595D01*
X162964881Y-105878357D01*
X162964881Y-105640261D01*
X163012500Y-105545023D01*
X163060119Y-105497404D01*
X163155357Y-105449785D01*
X163250595Y-105449785D01*
X163393452Y-105497404D01*
X163964881Y-106068833D01*
X163964881Y-105449785D01*
X123847527Y-86750912D02*
X123275107Y-86649897D01*
X123443466Y-87154973D02*
X122736359Y-86447866D01*
X123005734Y-86178492D01*
X123106749Y-86144820D01*
X123174092Y-86144820D01*
X123275107Y-86178492D01*
X123376123Y-86279507D01*
X123409794Y-86380522D01*
X123409794Y-86447866D01*
X123376123Y-86548881D01*
X123106748Y-86818255D01*
X124083229Y-86447866D02*
X124217916Y-86380523D01*
X124386276Y-86212164D01*
X124419947Y-86111149D01*
X124419947Y-86043805D01*
X124386276Y-85942790D01*
X124318932Y-85875447D01*
X124217917Y-85841775D01*
X124150574Y-85841775D01*
X124049558Y-85875446D01*
X123881198Y-85976462D01*
X123780183Y-86010133D01*
X123712840Y-86010133D01*
X123611825Y-85976462D01*
X123544481Y-85909118D01*
X123510810Y-85808103D01*
X123510810Y-85740760D01*
X123544481Y-85639745D01*
X123712841Y-85471385D01*
X123847527Y-85404042D01*
X124015886Y-85168340D02*
X124419947Y-84764278D01*
X124925023Y-85673416D02*
X124217916Y-84966310D01*
X125733146Y-84865294D02*
X125329084Y-85269355D01*
X125531115Y-85067325D02*
X124824008Y-84360218D01*
X124857680Y-84528576D01*
X124857680Y-84663263D01*
X124824008Y-84764278D01*
X180848167Y-104253762D02*
X180991024Y-104301381D01*
X181229120Y-104301381D01*
X181324358Y-104253762D01*
X181371977Y-104206143D01*
X181419596Y-104110905D01*
X181419596Y-104015667D01*
X181371977Y-103920429D01*
X181324358Y-103872810D01*
X181229120Y-103825190D01*
X181038643Y-103777571D01*
X180943405Y-103729952D01*
X180895786Y-103682333D01*
X180848167Y-103587095D01*
X180848167Y-103491857D01*
X180895786Y-103396619D01*
X180943405Y-103349000D01*
X181038643Y-103301381D01*
X181276739Y-103301381D01*
X181419596Y-103349000D01*
X181752929Y-103301381D02*
X181991024Y-104301381D01*
X182181501Y-103587095D01*
X182371977Y-104301381D01*
X182610072Y-103301381D01*
X182943405Y-103396619D02*
X182991024Y-103349000D01*
X183086262Y-103301381D01*
X183324358Y-103301381D01*
X183419596Y-103349000D01*
X183467215Y-103396619D01*
X183514834Y-103491857D01*
X183514834Y-103587095D01*
X183467215Y-103729952D01*
X182895786Y-104301381D01*
X183514834Y-104301381D01*
X156309566Y-93929929D02*
X156553866Y-94601138D01*
X156557978Y-94751667D01*
X156501057Y-94873735D01*
X156383102Y-94967342D01*
X156293607Y-94999915D01*
X156744864Y-93872844D02*
X156773325Y-93811810D01*
X156846532Y-93734489D01*
X157070269Y-93653056D01*
X157176051Y-93665229D01*
X157237084Y-93693690D01*
X157314405Y-93766898D01*
X157346978Y-93856392D01*
X157351091Y-94006921D01*
X157009564Y-94739328D01*
X157591278Y-94527602D01*
M02*
