M48
;DRILL file {KiCad 4.0.7} date 11/25/17 11:21:47
;FORMAT={-:-/ absolute / inch / decimal}
FMAT,2
INCH,TZ
T1C0.016
T2C0.039
T3C0.047
%
G90
G05
M72
T1
X3.2975Y-3.2175
X3.345Y-4.905
X3.37Y-3.2025
X3.47Y-3.315
X3.4775Y-4.935
X3.54Y-4.935
X3.6275Y-2.36
X3.63Y-3.37
X3.63Y-5.01
X3.72Y-2.67
X3.7225Y-4.9325
X3.7675Y-4.985
X3.7675Y-5.1525
X3.8225Y-5.055
X3.85Y-5.095
X3.8575Y-2.495
X3.86Y-5.7
X3.8875Y-2.7925
X3.8875Y-3.315
X3.8975Y-3.4075
X3.9775Y-2.605
X3.99Y-2.89
X4.0075Y-5.405
X4.05Y-3.3675
X4.0525Y-3.2
X4.0725Y-5.535
X4.08Y-5.405
X4.1075Y-3.2
X4.1225Y-5.5025
X4.1325Y-3.065
X4.135Y-2.9
X4.1625Y-5.4025
X4.175Y-5.5
X4.2025Y-2.12
X4.205Y-6.2475
X4.225Y-2.24
X4.23Y-5.4025
X4.295Y-2.095
X4.31Y-2.27
X4.325Y-5.9275
X4.3375Y-6.16
X4.3525Y-5.86
X4.3675Y-2.245
X4.385Y-2.09
X4.4Y-5.7875
X4.41Y-6.2025
X4.4125Y-5.105
X4.4175Y-2.4275
X4.4275Y-5.705
X4.435Y-2.57
X4.4425Y-5.6175
X4.46Y-6.
X4.4725Y-1.9775
X4.4725Y-5.505
X4.4725Y-6.2075
X4.49Y-6.0475
X4.515Y-2.685
X4.5175Y-2.98
X4.5225Y-2.9025
X4.5225Y-5.755
X4.5525Y-5.67
X4.5575Y-4.9625
X4.57Y-3.26
X4.575Y-5.575
X4.6Y-5.505
X4.6375Y-3.0575
X4.6425Y-4.87
X4.66Y-5.09
X4.745Y-4.8375
X4.78Y-3.3875
X4.81Y-4.94
X4.8425Y-3.4325
X4.8525Y-4.9
X4.9225Y-3.3375
X4.94Y-4.6925
X4.945Y-4.825
X4.9575Y-3.3875
X4.9725Y-3.545
X5.02Y-4.745
X5.025Y-4.6175
X5.0525Y-3.4775
X5.07Y-4.58
X5.0975Y-3.49
X5.15Y-4.6775
X5.215Y-4.46
X5.225Y-4.4
X5.2525Y-3.8525
X5.29Y-3.83
X5.315Y-3.7675
X5.325Y-3.7975
X5.33Y-4.08
X5.3575Y-4.3425
X5.4125Y-4.025
X5.44Y-4.27
X5.46Y-4.49
X5.495Y-4.22
X5.505Y-4.295
X5.62Y-4.59
X5.6475Y-4.135
X5.6875Y-4.205
X5.7175Y-4.2775
X5.74Y-4.3175
X5.7625Y-1.6975
X5.77Y-1.63
X5.8625Y-1.6325
X5.87Y-1.79
X5.9125Y-2.02
X5.9625Y-1.5025
X6.005Y-4.02
X6.02Y-6.52
X6.025Y-2.03
X6.0275Y-3.155
X6.0325Y-2.125
X6.0475Y-3.9675
X6.1025Y-5.2025
X6.105Y-5.0975
X6.125Y-4.68
X6.145Y-3.545
X6.1675Y-4.33
X6.1725Y-3.01
X6.22Y-5.2175
X6.2475Y-2.88
X6.2575Y-6.1975
X6.26Y-2.6
X6.26Y-6.0925
X6.27Y-3.1875
X6.2975Y-3.0575
X6.37Y-5.53
X6.4375Y-1.8375
X6.45Y-4.075
X6.46Y-4.265
X6.5025Y-4.13
X6.5125Y-2.3075
X6.535Y-6.2775
X6.5425Y-1.885
X6.56Y-1.66
X6.5625Y-6.0225
X6.6425Y-6.27
X6.6475Y-6.17
X6.6725Y-6.3
X6.6775Y-1.745
X6.69Y-6.56
X6.6925Y-2.2925
X6.8Y-4.2
X6.815Y-4.13
X6.8225Y-1.6625
X6.8325Y-1.5825
X6.845Y-2.1575
X6.8575Y-1.49
X7.13Y-2.09
X7.18Y-6.06
X7.7475Y-4.45
X7.79Y-4.2
X7.84Y-4.475
X7.9025Y-3.6
X7.94Y-4.4725
X8.0375Y-3.675
X8.1Y-3.46
X8.175Y-3.5575
X8.23Y-5.05
X8.39Y-4.05
X8.4225Y-3.4175
T2
X6.205Y-3.8
X6.2392Y-3.894
X6.2734Y-3.9879
T3
X8.85Y-4.05
X8.85Y-4.2
T0
M30
