G04 #@! TF.FileFunction,Soldermask,Top*
%FSLAX46Y46*%
G04 Gerber Fmt 4.6, Leading zero omitted, Abs format (unit mm)*
G04 Created by KiCad (PCBNEW 4.0.7) date 11/25/17 11:21:43*
%MOMM*%
%LPD*%
G01*
G04 APERTURE LIST*
%ADD10C,0.100000*%
%ADD11C,3.399740*%
%ADD12R,2.000000X1.400000*%
%ADD13R,1.900000X1.650000*%
%ADD14R,1.650000X1.900000*%
%ADD15R,1.700000X1.900000*%
%ADD16R,1.300000X1.400000*%
%ADD17C,2.100000*%
G04 APERTURE END LIST*
D10*
G36*
X139206176Y-104310113D02*
X138693146Y-102900574D01*
X141418254Y-101908715D01*
X141931284Y-103318254D01*
X139206176Y-104310113D01*
X139206176Y-104310113D01*
G37*
G36*
X139890216Y-106189498D02*
X139377186Y-104779959D01*
X142102294Y-103788100D01*
X142615324Y-105197639D01*
X139890216Y-106189498D01*
X139890216Y-106189498D01*
G37*
G36*
X140574257Y-108068883D02*
X140061227Y-106659344D01*
X142786335Y-105667485D01*
X143299365Y-107077024D01*
X140574257Y-108068883D01*
X140574257Y-108068883D01*
G37*
G36*
X141258297Y-109948269D02*
X140745267Y-108538730D01*
X143470375Y-107546871D01*
X143983405Y-108956410D01*
X141258297Y-109948269D01*
X141258297Y-109948269D01*
G37*
G36*
X141942337Y-111827654D02*
X141429307Y-110418115D01*
X144154415Y-109426256D01*
X144667445Y-110835795D01*
X141942337Y-111827654D01*
X141942337Y-111827654D01*
G37*
G36*
X142626377Y-113707039D02*
X142113347Y-112297500D01*
X144838455Y-111305641D01*
X145351485Y-112715180D01*
X142626377Y-113707039D01*
X142626377Y-113707039D01*
G37*
G36*
X143310418Y-115586424D02*
X142797388Y-114176885D01*
X145522496Y-113185026D01*
X146035526Y-114594565D01*
X143310418Y-115586424D01*
X143310418Y-115586424D01*
G37*
G36*
X143994458Y-117465810D02*
X143481428Y-116056271D01*
X146206536Y-115064412D01*
X146719566Y-116473951D01*
X143994458Y-117465810D01*
X143994458Y-117465810D01*
G37*
G36*
X158465725Y-112198700D02*
X157952695Y-110789161D01*
X160677803Y-109797302D01*
X161190833Y-111206841D01*
X158465725Y-112198700D01*
X158465725Y-112198700D01*
G37*
G36*
X157781684Y-110319314D02*
X157268654Y-108909775D01*
X159993762Y-107917916D01*
X160506792Y-109327455D01*
X157781684Y-110319314D01*
X157781684Y-110319314D01*
G37*
G36*
X157097644Y-108439929D02*
X156584614Y-107030390D01*
X159309722Y-106038531D01*
X159822752Y-107448070D01*
X157097644Y-108439929D01*
X157097644Y-108439929D01*
G37*
G36*
X156413604Y-106560544D02*
X155900574Y-105151005D01*
X158625682Y-104159146D01*
X159138712Y-105568685D01*
X156413604Y-106560544D01*
X156413604Y-106560544D01*
G37*
G36*
X155729564Y-104681159D02*
X155216534Y-103271620D01*
X157941642Y-102279761D01*
X158454672Y-103689300D01*
X155729564Y-104681159D01*
X155729564Y-104681159D01*
G37*
G36*
X155045523Y-102801773D02*
X154532493Y-101392234D01*
X157257601Y-100400375D01*
X157770631Y-101809914D01*
X155045523Y-102801773D01*
X155045523Y-102801773D01*
G37*
G36*
X154361483Y-100922388D02*
X153848453Y-99512849D01*
X156573561Y-98520990D01*
X157086591Y-99930529D01*
X154361483Y-100922388D01*
X154361483Y-100922388D01*
G37*
G36*
X153677443Y-99043003D02*
X153164413Y-97633464D01*
X155889521Y-96641605D01*
X156402551Y-98051144D01*
X153677443Y-99043003D01*
X153677443Y-99043003D01*
G37*
G36*
X149410403Y-118048593D02*
X148000864Y-118561623D01*
X147009005Y-115836515D01*
X148418544Y-115323485D01*
X149410403Y-118048593D01*
X149410403Y-118048593D01*
G37*
G36*
X151289789Y-117364553D02*
X149880250Y-117877583D01*
X148888391Y-115152475D01*
X150297930Y-114639445D01*
X151289789Y-117364553D01*
X151289789Y-117364553D01*
G37*
G36*
X153169174Y-116680513D02*
X151759635Y-117193543D01*
X150767776Y-114468435D01*
X152177315Y-113955405D01*
X153169174Y-116680513D01*
X153169174Y-116680513D01*
G37*
G36*
X155048559Y-115996472D02*
X153639020Y-116509502D01*
X152647161Y-113784394D01*
X154056700Y-113271364D01*
X155048559Y-115996472D01*
X155048559Y-115996472D01*
G37*
G36*
X156927944Y-115312432D02*
X155518405Y-115825462D01*
X154526546Y-113100354D01*
X155936085Y-112587324D01*
X156927944Y-115312432D01*
X156927944Y-115312432D01*
G37*
G36*
X158807330Y-114628392D02*
X157397791Y-115141422D01*
X156405932Y-112416314D01*
X157815471Y-111903284D01*
X158807330Y-114628392D01*
X158807330Y-114628392D01*
G37*
D11*
X224790000Y-106680000D03*
X224790000Y-102870000D03*
D10*
G36*
X210115686Y-121772994D02*
X209125736Y-122762944D01*
X207711522Y-121348730D01*
X208701472Y-120358780D01*
X210115686Y-121772994D01*
X210115686Y-121772994D01*
G37*
G36*
X207852944Y-124035736D02*
X206862994Y-125025686D01*
X205448780Y-123611472D01*
X206438730Y-122621522D01*
X207852944Y-124035736D01*
X207852944Y-124035736D01*
G37*
G36*
X213651220Y-125308528D02*
X212661270Y-126298478D01*
X211247056Y-124884264D01*
X212237006Y-123894314D01*
X213651220Y-125308528D01*
X213651220Y-125308528D01*
G37*
G36*
X211388478Y-127571270D02*
X210398528Y-128561220D01*
X208984314Y-127147006D01*
X209974264Y-126157056D01*
X211388478Y-127571270D01*
X211388478Y-127571270D01*
G37*
D12*
X165648000Y-103302000D03*
X165648000Y-106502000D03*
X170648000Y-103302000D03*
X170648000Y-106502000D03*
X190540000Y-103302000D03*
X190540000Y-106502000D03*
X195540000Y-103302000D03*
X195540000Y-106502000D03*
X220178000Y-106248000D03*
X220178000Y-103048000D03*
X215178000Y-106248000D03*
X215178000Y-103048000D03*
D10*
G36*
X212745006Y-86163686D02*
X211755056Y-85173736D01*
X213169270Y-83759522D01*
X214159220Y-84749472D01*
X212745006Y-86163686D01*
X212745006Y-86163686D01*
G37*
G36*
X210482264Y-83900944D02*
X209492314Y-82910994D01*
X210906528Y-81496780D01*
X211896478Y-82486730D01*
X210482264Y-83900944D01*
X210482264Y-83900944D01*
G37*
G36*
X209209472Y-89699220D02*
X208219522Y-88709270D01*
X209633736Y-87295056D01*
X210623686Y-88285006D01*
X209209472Y-89699220D01*
X209209472Y-89699220D01*
G37*
G36*
X206946730Y-87436478D02*
X205956780Y-86446528D01*
X207370994Y-85032314D01*
X208360944Y-86022264D01*
X206946730Y-87436478D01*
X206946730Y-87436478D01*
G37*
G36*
X157590956Y-84628154D02*
X156259476Y-84195531D01*
X156877510Y-82293418D01*
X158208990Y-82726041D01*
X157590956Y-84628154D01*
X157590956Y-84628154D01*
G37*
G36*
X154547575Y-83639300D02*
X153216095Y-83206677D01*
X153834129Y-81304564D01*
X155165609Y-81737187D01*
X154547575Y-83639300D01*
X154547575Y-83639300D01*
G37*
G36*
X156045871Y-89383436D02*
X154714391Y-88950813D01*
X155332425Y-87048700D01*
X156663905Y-87481323D01*
X156045871Y-89383436D01*
X156045871Y-89383436D01*
G37*
G36*
X153002490Y-88394582D02*
X151671010Y-87961959D01*
X152289044Y-86059846D01*
X153620524Y-86492469D01*
X153002490Y-88394582D01*
X153002490Y-88394582D01*
G37*
G36*
X164702956Y-61768154D02*
X163371476Y-61335531D01*
X163989510Y-59433418D01*
X165320990Y-59866041D01*
X164702956Y-61768154D01*
X164702956Y-61768154D01*
G37*
G36*
X161659575Y-60779300D02*
X160328095Y-60346677D01*
X160946129Y-58444564D01*
X162277609Y-58877187D01*
X161659575Y-60779300D01*
X161659575Y-60779300D01*
G37*
G36*
X163157871Y-66523436D02*
X161826391Y-66090813D01*
X162444425Y-64188700D01*
X163775905Y-64621323D01*
X163157871Y-66523436D01*
X163157871Y-66523436D01*
G37*
G36*
X160114490Y-65534582D02*
X158783010Y-65101959D01*
X159401044Y-63199846D01*
X160732524Y-63632469D01*
X160114490Y-65534582D01*
X160114490Y-65534582D01*
G37*
G36*
X188308688Y-53946329D02*
X187673101Y-52698920D01*
X189455114Y-51790939D01*
X190090701Y-53038348D01*
X188308688Y-53946329D01*
X188308688Y-53946329D01*
G37*
G36*
X186855919Y-51095108D02*
X186220332Y-49847699D01*
X188002345Y-48939718D01*
X188637932Y-50187127D01*
X186855919Y-51095108D01*
X186855919Y-51095108D01*
G37*
G36*
X183853655Y-56216282D02*
X183218068Y-54968873D01*
X185000081Y-54060892D01*
X185635668Y-55308301D01*
X183853655Y-56216282D01*
X183853655Y-56216282D01*
G37*
G36*
X182400886Y-53365061D02*
X181765299Y-52117652D01*
X183547312Y-51209671D01*
X184182899Y-52457080D01*
X182400886Y-53365061D01*
X182400886Y-53365061D01*
G37*
G36*
X172830956Y-38146154D02*
X171499476Y-37713531D01*
X172117510Y-35811418D01*
X173448990Y-36244041D01*
X172830956Y-38146154D01*
X172830956Y-38146154D01*
G37*
G36*
X169787575Y-37157300D02*
X168456095Y-36724677D01*
X169074129Y-34822564D01*
X170405609Y-35255187D01*
X169787575Y-37157300D01*
X169787575Y-37157300D01*
G37*
G36*
X171285871Y-42901436D02*
X169954391Y-42468813D01*
X170572425Y-40566700D01*
X171903905Y-40999323D01*
X171285871Y-42901436D01*
X171285871Y-42901436D01*
G37*
G36*
X168242490Y-41912582D02*
X166911010Y-41479959D01*
X167529044Y-39577846D01*
X168860524Y-40010469D01*
X168242490Y-41912582D01*
X168242490Y-41912582D01*
G37*
G36*
X150212329Y-38259312D02*
X148964920Y-38894899D01*
X148056939Y-37112886D01*
X149304348Y-36477299D01*
X150212329Y-38259312D01*
X150212329Y-38259312D01*
G37*
G36*
X147361108Y-39712081D02*
X146113699Y-40347668D01*
X145205718Y-38565655D01*
X146453127Y-37930068D01*
X147361108Y-39712081D01*
X147361108Y-39712081D01*
G37*
G36*
X152482282Y-42714345D02*
X151234873Y-43349932D01*
X150326892Y-41567919D01*
X151574301Y-40932332D01*
X152482282Y-42714345D01*
X152482282Y-42714345D01*
G37*
G36*
X149631061Y-44167114D02*
X148383652Y-44802701D01*
X147475671Y-43020688D01*
X148723080Y-42385101D01*
X149631061Y-44167114D01*
X149631061Y-44167114D01*
G37*
G36*
X132218381Y-90221583D02*
X131395481Y-91354207D01*
X129777447Y-90178637D01*
X130600347Y-89046013D01*
X132218381Y-90221583D01*
X132218381Y-90221583D01*
G37*
G36*
X130337468Y-92810437D02*
X129514568Y-93943061D01*
X127896534Y-92767491D01*
X128719434Y-91634867D01*
X130337468Y-92810437D01*
X130337468Y-92810437D01*
G37*
G36*
X136263466Y-93160509D02*
X135440566Y-94293133D01*
X133822532Y-93117563D01*
X134645432Y-91984939D01*
X136263466Y-93160509D01*
X136263466Y-93160509D01*
G37*
G36*
X134382553Y-95749363D02*
X133559653Y-96881987D01*
X131941619Y-95706417D01*
X132764519Y-94573793D01*
X134382553Y-95749363D01*
X134382553Y-95749363D01*
G37*
G36*
X113422381Y-76251583D02*
X112599481Y-77384207D01*
X110981447Y-76208637D01*
X111804347Y-75076013D01*
X113422381Y-76251583D01*
X113422381Y-76251583D01*
G37*
G36*
X111541468Y-78840437D02*
X110718568Y-79973061D01*
X109100534Y-78797491D01*
X109923434Y-77664867D01*
X111541468Y-78840437D01*
X111541468Y-78840437D01*
G37*
G36*
X117467466Y-79190509D02*
X116644566Y-80323133D01*
X115026532Y-79147563D01*
X115849432Y-78014939D01*
X117467466Y-79190509D01*
X117467466Y-79190509D01*
G37*
G36*
X115586553Y-81779363D02*
X114763653Y-82911987D01*
X113145619Y-81736417D01*
X113968519Y-80603793D01*
X115586553Y-81779363D01*
X115586553Y-81779363D01*
G37*
G36*
X112273031Y-50736668D02*
X110890268Y-50955676D01*
X110577399Y-48980300D01*
X111960162Y-48761292D01*
X112273031Y-50736668D01*
X112273031Y-50736668D01*
G37*
G36*
X109112428Y-51237258D02*
X107729665Y-51456266D01*
X107416796Y-49480890D01*
X108799559Y-49261882D01*
X109112428Y-51237258D01*
X109112428Y-51237258D01*
G37*
G36*
X113055204Y-55675110D02*
X111672441Y-55894118D01*
X111359572Y-53918742D01*
X112742335Y-53699734D01*
X113055204Y-55675110D01*
X113055204Y-55675110D01*
G37*
G36*
X109894601Y-56175700D02*
X108511838Y-56394708D01*
X108198969Y-54419332D01*
X109581732Y-54200324D01*
X109894601Y-56175700D01*
X109894601Y-56175700D01*
G37*
G36*
X92086381Y-61265583D02*
X91263481Y-62398207D01*
X89645447Y-61222637D01*
X90468347Y-60090013D01*
X92086381Y-61265583D01*
X92086381Y-61265583D01*
G37*
G36*
X90205468Y-63854437D02*
X89382568Y-64987061D01*
X87764534Y-63811491D01*
X88587434Y-62678867D01*
X90205468Y-63854437D01*
X90205468Y-63854437D01*
G37*
G36*
X96131466Y-64204509D02*
X95308566Y-65337133D01*
X93690532Y-64161563D01*
X94513432Y-63028939D01*
X96131466Y-64204509D01*
X96131466Y-64204509D01*
G37*
G36*
X94250553Y-66793363D02*
X93427653Y-67925987D01*
X91809619Y-66750417D01*
X92632519Y-65617793D01*
X94250553Y-66793363D01*
X94250553Y-66793363D01*
G37*
G36*
X85026668Y-82544969D02*
X85245676Y-83927732D01*
X83270300Y-84240601D01*
X83051292Y-82857838D01*
X85026668Y-82544969D01*
X85026668Y-82544969D01*
G37*
G36*
X85527258Y-85705572D02*
X85746266Y-87088335D01*
X83770890Y-87401204D01*
X83551882Y-86018441D01*
X85527258Y-85705572D01*
X85527258Y-85705572D01*
G37*
G36*
X89965110Y-81762796D02*
X90184118Y-83145559D01*
X88208742Y-83458428D01*
X87989734Y-82075665D01*
X89965110Y-81762796D01*
X89965110Y-81762796D01*
G37*
G36*
X90465700Y-84923399D02*
X90684708Y-86306162D01*
X88709332Y-86619031D01*
X88490324Y-85236268D01*
X90465700Y-84923399D01*
X90465700Y-84923399D01*
G37*
G36*
X131292568Y-114082939D02*
X132115468Y-115215563D01*
X130497434Y-116391133D01*
X129674534Y-115258509D01*
X131292568Y-114082939D01*
X131292568Y-114082939D01*
G37*
G36*
X133173481Y-116671793D02*
X133996381Y-117804417D01*
X132378347Y-118979987D01*
X131555447Y-117847363D01*
X133173481Y-116671793D01*
X133173481Y-116671793D01*
G37*
G36*
X135337653Y-111144013D02*
X136160553Y-112276637D01*
X134542519Y-113452207D01*
X133719619Y-112319583D01*
X135337653Y-111144013D01*
X135337653Y-111144013D01*
G37*
G36*
X137218566Y-113732867D02*
X138041466Y-114865491D01*
X136423432Y-116041061D01*
X135600532Y-114908437D01*
X137218566Y-113732867D01*
X137218566Y-113732867D01*
G37*
G36*
X110464568Y-129830939D02*
X111287468Y-130963563D01*
X109669434Y-132139133D01*
X108846534Y-131006509D01*
X110464568Y-129830939D01*
X110464568Y-129830939D01*
G37*
G36*
X112345481Y-132419793D02*
X113168381Y-133552417D01*
X111550347Y-134727987D01*
X110727447Y-133595363D01*
X112345481Y-132419793D01*
X112345481Y-132419793D01*
G37*
G36*
X114509653Y-126892013D02*
X115332553Y-128024637D01*
X113714519Y-129200207D01*
X112891619Y-128067583D01*
X114509653Y-126892013D01*
X114509653Y-126892013D01*
G37*
G36*
X116390566Y-129480867D02*
X117213466Y-130613491D01*
X115595432Y-131789061D01*
X114772532Y-130656437D01*
X116390566Y-129480867D01*
X116390566Y-129480867D01*
G37*
G36*
X86508266Y-122461665D02*
X86289258Y-123844428D01*
X84313882Y-123531559D01*
X84532890Y-122148796D01*
X86508266Y-122461665D01*
X86508266Y-122461665D01*
G37*
G36*
X86007676Y-125622268D02*
X85788668Y-127005031D01*
X83813292Y-126692162D01*
X84032300Y-125309399D01*
X86007676Y-125622268D01*
X86007676Y-125622268D01*
G37*
G36*
X91446708Y-123243838D02*
X91227700Y-124626601D01*
X89252324Y-124313732D01*
X89471332Y-122930969D01*
X91446708Y-123243838D01*
X91446708Y-123243838D01*
G37*
G36*
X90946118Y-126404441D02*
X90727110Y-127787204D01*
X88751734Y-127474335D01*
X88970742Y-126091572D01*
X90946118Y-126404441D01*
X90946118Y-126404441D01*
G37*
G36*
X89890568Y-144816939D02*
X90713468Y-145949563D01*
X89095434Y-147125133D01*
X88272534Y-145992509D01*
X89890568Y-144816939D01*
X89890568Y-144816939D01*
G37*
G36*
X91771481Y-147405793D02*
X92594381Y-148538417D01*
X90976347Y-149713987D01*
X90153447Y-148581363D01*
X91771481Y-147405793D01*
X91771481Y-147405793D01*
G37*
G36*
X93935653Y-141878013D02*
X94758553Y-143010637D01*
X93140519Y-144186207D01*
X92317619Y-143053583D01*
X93935653Y-141878013D01*
X93935653Y-141878013D01*
G37*
G36*
X95816566Y-144466867D02*
X96639466Y-145599491D01*
X95021432Y-146775061D01*
X94198532Y-145642437D01*
X95816566Y-144466867D01*
X95816566Y-144466867D01*
G37*
G36*
X107729665Y-157839734D02*
X109112428Y-158058742D01*
X108799559Y-160034118D01*
X107416796Y-159815110D01*
X107729665Y-157839734D01*
X107729665Y-157839734D01*
G37*
G36*
X110890268Y-158340324D02*
X112273031Y-158559332D01*
X111960162Y-160534708D01*
X110577399Y-160315700D01*
X110890268Y-158340324D01*
X110890268Y-158340324D01*
G37*
G36*
X108511838Y-152901292D02*
X109894601Y-153120300D01*
X109581732Y-155095676D01*
X108198969Y-154876668D01*
X108511838Y-152901292D01*
X108511838Y-152901292D01*
G37*
G36*
X111672441Y-153401882D02*
X113055204Y-153620890D01*
X112742335Y-155596266D01*
X111359572Y-155377258D01*
X111672441Y-153401882D01*
X111672441Y-153401882D01*
G37*
G36*
X153724095Y-126597323D02*
X155055575Y-126164700D01*
X155673609Y-128066813D01*
X154342129Y-128499436D01*
X153724095Y-126597323D01*
X153724095Y-126597323D01*
G37*
G36*
X156767476Y-125608469D02*
X158098956Y-125175846D01*
X158716990Y-127077959D01*
X157385510Y-127510582D01*
X156767476Y-125608469D01*
X156767476Y-125608469D01*
G37*
G36*
X152179010Y-121842041D02*
X153510490Y-121409418D01*
X154128524Y-123311531D01*
X152797044Y-123744154D01*
X152179010Y-121842041D01*
X152179010Y-121842041D01*
G37*
G36*
X155222391Y-120853187D02*
X156553871Y-120420564D01*
X157171905Y-122322677D01*
X155840425Y-122755300D01*
X155222391Y-120853187D01*
X155222391Y-120853187D01*
G37*
G36*
X160328095Y-147933323D02*
X161659575Y-147500700D01*
X162277609Y-149402813D01*
X160946129Y-149835436D01*
X160328095Y-147933323D01*
X160328095Y-147933323D01*
G37*
G36*
X163371476Y-146944469D02*
X164702956Y-146511846D01*
X165320990Y-148413959D01*
X163989510Y-148846582D01*
X163371476Y-146944469D01*
X163371476Y-146944469D01*
G37*
G36*
X158783010Y-143178041D02*
X160114490Y-142745418D01*
X160732524Y-144647531D01*
X159401044Y-145080154D01*
X158783010Y-143178041D01*
X158783010Y-143178041D01*
G37*
G36*
X161826391Y-142189187D02*
X163157871Y-141756564D01*
X163775905Y-143658677D01*
X162444425Y-144091300D01*
X161826391Y-142189187D01*
X161826391Y-142189187D01*
G37*
G36*
X146621699Y-169456332D02*
X147869108Y-170091919D01*
X146961127Y-171873932D01*
X145713718Y-171238345D01*
X146621699Y-169456332D01*
X146621699Y-169456332D01*
G37*
G36*
X149472920Y-170909101D02*
X150720329Y-171544688D01*
X149812348Y-173326701D01*
X148564939Y-172691114D01*
X149472920Y-170909101D01*
X149472920Y-170909101D01*
G37*
G36*
X148891652Y-165001299D02*
X150139061Y-165636886D01*
X149231080Y-167418899D01*
X147983671Y-166783312D01*
X148891652Y-165001299D01*
X148891652Y-165001299D01*
G37*
G36*
X151742873Y-166454068D02*
X152990282Y-167089655D01*
X152082301Y-168871668D01*
X150834892Y-168236081D01*
X151742873Y-166454068D01*
X151742873Y-166454068D01*
G37*
G36*
X167948095Y-173333323D02*
X169279575Y-172900700D01*
X169897609Y-174802813D01*
X168566129Y-175235436D01*
X167948095Y-173333323D01*
X167948095Y-173333323D01*
G37*
G36*
X170991476Y-172344469D02*
X172322956Y-171911846D01*
X172940990Y-173813959D01*
X171609510Y-174246582D01*
X170991476Y-172344469D01*
X170991476Y-172344469D01*
G37*
G36*
X166403010Y-168578041D02*
X167734490Y-168145418D01*
X168352524Y-170047531D01*
X167021044Y-170480154D01*
X166403010Y-168578041D01*
X166403010Y-168578041D01*
G37*
G36*
X169446391Y-167589187D02*
X170777871Y-167156564D01*
X171395905Y-169058677D01*
X170064425Y-169491300D01*
X169446391Y-167589187D01*
X169446391Y-167589187D01*
G37*
G36*
X186220332Y-160210301D02*
X186855919Y-158962892D01*
X188637932Y-159870873D01*
X188002345Y-161118282D01*
X186220332Y-160210301D01*
X186220332Y-160210301D01*
G37*
G36*
X187673101Y-157359080D02*
X188308688Y-156111671D01*
X190090701Y-157019652D01*
X189455114Y-158267061D01*
X187673101Y-157359080D01*
X187673101Y-157359080D01*
G37*
G36*
X181765299Y-157940348D02*
X182400886Y-156692939D01*
X184182899Y-157600920D01*
X183547312Y-158848329D01*
X181765299Y-157940348D01*
X181765299Y-157940348D01*
G37*
G36*
X183218068Y-155089127D02*
X183853655Y-153841718D01*
X185635668Y-154749699D01*
X185000081Y-155997108D01*
X183218068Y-155089127D01*
X183218068Y-155089127D01*
G37*
D13*
X152420000Y-163449000D03*
X154920000Y-163449000D03*
D14*
X169291000Y-164699000D03*
X169291000Y-162199000D03*
X161290000Y-138537000D03*
X161290000Y-136037000D03*
D10*
G36*
X154745386Y-117661541D02*
X155255264Y-119230784D01*
X153448256Y-119817917D01*
X152938378Y-118248674D01*
X154745386Y-117661541D01*
X154745386Y-117661541D01*
G37*
G36*
X152367744Y-118434083D02*
X152877622Y-120003326D01*
X151070614Y-120590459D01*
X150560736Y-119021216D01*
X152367744Y-118434083D01*
X152367744Y-118434083D01*
G37*
D14*
X114554000Y-150729000D03*
X114554000Y-148229000D03*
D10*
G36*
X99416086Y-144962567D02*
X98446240Y-143627689D01*
X99983372Y-142510897D01*
X100953218Y-143845775D01*
X99416086Y-144962567D01*
X99416086Y-144962567D01*
G37*
G36*
X101438628Y-143493103D02*
X100468782Y-142158225D01*
X102005914Y-141041433D01*
X102975760Y-142376311D01*
X101438628Y-143493103D01*
X101438628Y-143493103D01*
G37*
D13*
X91460000Y-129540000D03*
X93960000Y-129540000D03*
X118511000Y-127127000D03*
X121011000Y-127127000D03*
X180828000Y-152654000D03*
X178328000Y-152654000D03*
D14*
X140208000Y-113518000D03*
X140208000Y-111018000D03*
D10*
G36*
X133948529Y-98456244D02*
X135377471Y-97631244D01*
X136327471Y-99276692D01*
X134898529Y-100101692D01*
X133948529Y-98456244D01*
X133948529Y-98456244D01*
G37*
G36*
X135198529Y-100621308D02*
X136627471Y-99796308D01*
X137577471Y-101441756D01*
X136148529Y-102266756D01*
X135198529Y-100621308D01*
X135198529Y-100621308D01*
G37*
D13*
X117241000Y-83947000D03*
X119741000Y-83947000D03*
X94635000Y-69342000D03*
X97135000Y-69342000D03*
X94254000Y-85471000D03*
X96754000Y-85471000D03*
X108097000Y-58928000D03*
X110597000Y-58928000D03*
D14*
X150241000Y-46502000D03*
X150241000Y-49002000D03*
X165227000Y-42438000D03*
X165227000Y-44938000D03*
D13*
X179685000Y-53594000D03*
X177185000Y-53594000D03*
X174899000Y-106680000D03*
X177399000Y-106680000D03*
D14*
X198374000Y-108605000D03*
X198374000Y-111105000D03*
D13*
X204069000Y-89408000D03*
X201569000Y-89408000D03*
D14*
X206248000Y-120757000D03*
X206248000Y-118257000D03*
D13*
X154706000Y-80137000D03*
X157206000Y-80137000D03*
D14*
X158877000Y-68346000D03*
X158877000Y-70846000D03*
D13*
X210927000Y-102616000D03*
X208427000Y-102616000D03*
D15*
X137160000Y-103806000D03*
X137160000Y-106506000D03*
X161798000Y-108030000D03*
X161798000Y-105330000D03*
D10*
G36*
X124004101Y-89277977D02*
X123014152Y-88288028D01*
X123933391Y-87368789D01*
X124923340Y-88358738D01*
X124004101Y-89277977D01*
X124004101Y-89277977D01*
G37*
G36*
X125135472Y-90409348D02*
X124145523Y-89419399D01*
X125064762Y-88500160D01*
X126054711Y-89490109D01*
X125135472Y-90409348D01*
X125135472Y-90409348D01*
G37*
G36*
X126903238Y-86378840D02*
X125913289Y-85388891D01*
X126832528Y-84469652D01*
X127822477Y-85459601D01*
X126903238Y-86378840D01*
X126903238Y-86378840D01*
G37*
G36*
X128034609Y-87510211D02*
X127044660Y-86520262D01*
X127963899Y-85601023D01*
X128953848Y-86590972D01*
X128034609Y-87510211D01*
X128034609Y-87510211D01*
G37*
D16*
X180131500Y-105499000D03*
X180131500Y-107099000D03*
X184231500Y-105499000D03*
X184231500Y-107099000D03*
D10*
G36*
X156979444Y-97865798D02*
X156261202Y-95892444D01*
X158234556Y-95174202D01*
X158952798Y-97147556D01*
X156979444Y-97865798D01*
X156979444Y-97865798D01*
G37*
D17*
X158475731Y-98906819D02*
X158475731Y-98906819D01*
X159344462Y-101293639D02*
X159344462Y-101293639D01*
M02*
